<?xml version="1.0" encoding="UTF-8" standalone="no"?><svg xmlns:inkscape="http://www.inkscape.org/namespaces/inkscape" xmlns:sodipodi="http://sodipodi.sourceforge.net/DTD/sodipodi-0.dtd" xmlns="http://www.w3.org/2000/svg" xmlns:svg="http://www.w3.org/2000/svg" id="Layer_1" width="193.021mm" height="36.248mm" viewBox="0 0 547.146 102.751" version="1.1"><defs id="defs4"><style id="style2">.cls-1{fill:#fff;}.cls-2{fill:#4a79bc;}</style></defs><path class="cls-1" d="M272.992,15.436c-8.366,13.401-18.879,29.545-27.012,40.623-8.832-13.092-17.673-26.68-24.878-40.623h-21.33l-43.262,34.426c-.078-2.014-.078-4.339-.078-7.127,0-18.748,.662-21.875,1.281-27.298h-17.676c.621,5.423,1.211,8.55,1.211,27.298,0,10.253-.294,16.818-.653,21.698-14.377-21.25-23.307-36.88-36.087-59.021-2.659-4.632-3.936-5.412-8.66-5.412h-22.732V1.279c5.412,.591,7.873,.658,9.743,2.726-12.991,19.878-32.179,48.417-46.35,66.523h15.252c2.756-5.509,6.298-11.808,10.038-18.304h49.302c3.149,6.1,6.201,12.203,9.054,18.304h24.602l-.019-.028c4.297,0,10.048,.028,12.951,.028-.388-3.253-.639-6.723-.948-12.611l16.5-12.548c10.07,16.964,13.556,27.036,31.528,27.036,8.444,0,12.317-1.937,15.648-3.874l-.542-1.007c-2.557,1.395-5.112,1.858-6.817,1.858-10.303,0-13.169-8.365-27.655-34.008l19.12-15.121c12.818,16.486,26.1,36.747,36.109,52.538h1.163c13.48-19.134,27.203-38.221,41.999-57.355h-10.803ZM66.918,43.761c6.986-11.415,14.465-23.027,20.566-32.474,6.988,11.217,13.286,21.946,19.091,32.474h-39.657ZM490.775,19.697c-1.999-3.654-3.1-4.26-6.818-4.26h-17.894v1.007c4.26,.465,6.197,.572,7.669,2.2-9.912,15.169-24.051,36.272-35.07,50.535-.516-5.336-1.105-12.467-1.105-26.443,0-18.748,.588-21.875,1.207-27.298h-17.709c.697,5.423,1.318,8.55,1.318,27.298,0,13.068-.541,20.151-1.037,25.379-2.02,.922-4.035,1.268-6.256,1.268-7.668-.077-10.07-8.365-14.874-15.725-1.239-1.858-2.556-3.642-4.415-5.19,11.31-2.014,15.802-6.816,15.802-16.113,0-13.013-8.754-16.918-32.923-16.918h-33.853c.621,5.423,1.24,8.55,1.24,27.298,0,13.841-.542,20.968-1.05,26.287-12.652-18.434-19.611-30.775-30.319-49.325-2.015-3.671-3.099-4.26-6.817-4.26h-17.894v1.007c4.26,.465,6.197,.572,7.669,2.2-10.226,15.648-24.96,37.632-36.115,51.885h11.873c2.17-4.337,4.719-8.813,7.663-13.927h38.811c2.479,4.802,4.655,9.125,6.901,13.927h35.727c-.465-4.725-1.034-10.285-1.188-20.978h12.471c15.648,0,6.43,22.775,34.318,22.775,7.359,0,10.757-1.042,12.993-1.798h28.391c2.17-4.337,4.718-8.813,7.662-13.927h38.812c2.479,4.802,4.652,9.125,6.899,13.927h19.26c-13.325-19.29-20.35-31.775-31.349-50.832Zm-205.678,30.242c5.5-8.986,11.388-18.127,16.19-25.564,5.501,8.83,10.459,17.276,15.029,25.564h-31.219Zm93.574-6.972h-17.43c0-12.472,.233-17.429,.465-21.227h16.965c14.331,0,17.429,4.339,17.429,10.613s-3.099,10.613-17.429,10.613Zm82.513,6.972c5.5-8.986,11.386-18.127,16.19-25.564,5.5,8.83,10.458,17.276,15.027,25.564h-31.217Z" id="path6" style="fill:#4d4d4d"/><g id="g14" style="fill:#4d4d4d"><path class="cls-1" d="M501.605,28.524c0-1.128,.921-2.027,2.235-2.027s2.235,.921,2.235,2.051c0,1.105-.921,2.051-2.235,2.051s-2.235-.991-2.235-2.076Z" id="path8" style="fill:#4d4d4d"/><path class="cls-1" d="M512.677,22.741c0,3.802,2.697,6.245,7.052,6.245,3.643,0,5.485-.876,7.422-2.789l.276,.092-.691,3.019c-.069,.276-.184,.323-.623,.46-1.935,.554-3.871,.831-6.384,.831-6.337,0-11.892-2.329-11.892-7.884,0-4.862,4.472-7.559,11.8-7.559,2.237,0,4.425,.323,6.431,.991,.253,.092,.437,.231,.529,.507l.576,3.481-.298,.069c-1.13-1.867-3.412-3.389-7.191-3.389-3.918,0-7.007,1.892-7.007,5.924Z" id="path10" style="fill:#4d4d4d"/><path class="cls-1" d="M529.607,30.138v-.323c3.733-4.125,7.283-8.252,10.648-12.376h-6.822c-1.361,0-2.076,.415-2.697,.852l-.278-.114,.531-2.558h15.694v.323c-3.733,4.102-7.283,8.182-10.648,12.26h7.537c1.614,0,2.374-.229,3.273-.829l.3,.116-.946,2.65h-16.593Z" id="path12" style="fill:#4d4d4d"/></g><path class="cls-2" d="M18.282,26.157c8.546,10.386,8.853,12.13,8.853,12.13-.156-2.894,1.37-16.702-7.817-27.135C11.124,1.846,9.588,0,9.588,0c0-.001,.047,15.646,8.693,26.157Z" id="path16" style="fill:#4d4d4d"/><path class="cls-2" d="M16.16,52.901c14.136,14.815,14.801,17.424,14.801,17.424-.567-4.368,.169-25.457-14.944-40.274C2.538,16.836,0,14.204,0,14.204c0-.002,1.858,23.704,16.16,38.697Z" id="path18" style="fill:#4d4d4d"/><path class="cls-2" d="M48.221,6.151c1.814,0,3.284,1.473,3.284,3.291s-1.47,3.285-3.284,3.285-3.284-1.471-3.284-3.285,1.467-3.291,3.284-3.291Z" id="path20" style="fill:#4d4d4d"/><path class="cls-2" d="M35.699,24.376c0-2.693,2.181-4.875,4.865-4.875,2.698,0,4.881,2.182,4.881,4.875s-2.183,4.874-4.881,4.874c-2.684,0-4.865-2.18-4.865-4.874Z" id="path22" style="fill:#4d4d4d"/><path class="cls-2" d="M39.227,51.618c-3.5,0-6.346-2.846-6.346-6.352s2.846-6.353,6.346-6.353,6.358,2.841,6.358,6.353-2.844,6.352-6.358,6.352Z" id="path24" style="fill:#4d4d4d"/><path class="cls-2" d="M50.693,36.597c-1.816,0-3.284-1.47-3.284-3.283s1.468-3.286,3.284-3.286,3.282,1.47,3.282,3.286-1.47,3.283-3.282,3.283Z" id="path26" style="fill:#4d4d4d"/><g id="g86" style="fill:#4d4d4d"><path class="cls-1" d="M152.68,85.892c-.034,.848-.051,2.121-.051,3.82v1.719c.914-.592,1.752-.889,2.513-.889,1.068,0,1.911,.355,2.53,1.068,.619,.711,.929,1.64,.929,2.787,0,1.394-.399,2.48-1.197,3.257-.798,.777-1.904,1.165-3.318,1.165-.943,0-1.959-.161-3.05-.484,.011-.717,.017-1.64,.017-2.77v-5.023c0-1.248-.011-2.413-.034-3.499l-1.143-.339-.042-.278c.927-.176,1.848-.376,2.761-.602l.085,.067Zm-.051,11.979c.457,.146,.919,.219,1.387,.219,.946,0,1.658-.291,2.134-.873,.476-.581,.714-1.415,.714-2.499,0-.993-.22-1.767-.659-2.32-.44-.553-1.091-.83-1.953-.83-.552,0-1.093,.123-1.623,.372v5.931Z" id="path28" style="fill:#4d4d4d"/><path class="cls-1" d="M158.771,90.737c.712,.017,1.344,.026,1.898,.026,.378,0,.983-.009,1.813-.026l.034,.348-.991,.271c.209,.593,.452,1.247,.729,1.961,.277,.715,.57,1.458,.881,2.232,.13,.323,.271,.692,.424,1.111,.158-.424,.327-.856,.508-1.296,.265-.655,.523-1.301,.771-1.935,.248-.636,.505-1.327,.771-2.072l-.966-.271-.034-.348c.418,.017,.906,.026,1.466,.026,.502,0,.991-.009,1.465-.026l.042,.348-.788,.221c-.175,.057-.302,.172-.381,.348-.209,.479-.435,1.005-.678,1.575-.746,1.752-1.31,3.186-1.694,4.304-.26,.756-.494,1.531-.703,2.325-.209,.793-.37,1.475-.483,2.045-.051,.277-.154,.488-.309,.631-.156,.144-.518,.217-1.089,.217-.582,0-1.146-.021-1.694-.061l-.043-.329c.621-.097,1.082-.297,1.381-.602,.362-.39,.921-1.427,1.677-3.109l.068-.161-.119-.035c-1.033-2.574-1.968-4.839-2.804-6.793-.074-.168-.204-.285-.39-.348l-.746-.228-.017-.348Z" id="path30" style="fill:#4d4d4d"/><path class="cls-1" d="M175.129,95.989c0,.34,.001,.645,.004,.916,.003,.271,.007,.517,.013,.737,.005,.176,.079,.286,.22,.33l.94,.279,.025,.365c-.672-.017-1.344-.026-2.016-.026-.683,0-1.384,.009-2.101,.026l-.034-.365,1.042-.313c.141-.04,.217-.127,.229-.262,.005-.226,.01-.479,.013-.758,.003-.28,.004-.589,.004-.929v-6.868c0-.289-.002-.548-.004-.78-.003-.231-.007-.441-.013-.627-.006-.147-.074-.242-.203-.287l-1.05-.33-.017-.365c.729,.023,1.44,.034,2.135,.034,.137,0,.311-.004,.523-.013,.211-.008,.468-.018,.77-.029,.308-.011,.565-.02,.77-.025,.206-.007,.368-.009,.488-.009,1.301,0,2.277,.243,2.928,.729,.651,.485,.976,1.194,.976,2.125,0,.842-.224,1.523-.67,2.046-.447,.523-1.128,.926-2.044,1.207,.361,.541,.693,1.066,.996,1.571,.303,.505,.585,.968,.846,1.389,.261,.421,.499,.792,.716,1.115,.217,.322,.418,.576,.605,.763,.096,.096,.192,.179,.288,.249,.096,.071,.196,.129,.301,.174,.105,.045,.215,.085,.33,.118,.116,.034,.244,.068,.385,.102l.026,.373c-.407,.051-.749,.076-1.025,.076-.232,0-.435-.005-.611-.016-.176-.012-.332-.034-.469-.068-.137-.034-.262-.077-.374-.132-.112-.054-.222-.123-.331-.208-.234-.175-.465-.428-.691-.757-.226-.33-.461-.705-.704-1.122-.244-.417-.497-.863-.76-1.334-.263-.472-.541-.933-.833-1.385-.086-.136-.159-.243-.219-.322-.06-.079-.126-.141-.197-.187-.072-.045-.155-.075-.249-.093-.095-.017-.216-.027-.365-.034l-.592-.016v2.938Zm0-3.574c.344,.016,.664,.026,.957,.026,.977,0,1.693-.209,2.148-.623,.454-.416,.682-1.066,.682-1.953,0-.858-.218-1.485-.652-1.882-.435-.393-1.115-.592-2.042-.592-.158,0-.328,.007-.508,.017-.181,.011-.376,.027-.585,.05v4.956Z" id="path32" style="fill:#4d4d4d"/><path class="cls-1" d="M189.767,97.988c-.48,.3-.974,.514-1.482,.645-.508,.129-.98,.193-1.415,.193-1.243,0-2.247-.354-3.012-1.063-.766-.708-1.148-1.692-1.148-2.952,0-1.253,.357-2.279,1.071-3.075,.713-.795,1.668-1.194,2.863-1.194,1.001,0,1.78,.299,2.338,.893,.557,.597,.836,1.419,.836,2.47,0,.158-.009,.318-.026,.482h-5.345c0,1.215,.285,2.084,.855,2.606,.57,.523,1.463,.783,2.677,.783,.542,0,1.121-.05,1.736-.152l.051,.363Zm-1.686-4.303v-.254c0-.801-.126-1.375-.377-1.719-.252-.344-.626-.517-1.124-.517-.658,0-1.161,.243-1.51,.729-.348,.486-.545,1.072-.589,1.761h3.6Z" id="path34" style="fill:#4d4d4d"/><path class="cls-1" d="M190.097,90.737c.712,.017,1.344,.026,1.897,.026,.508,0,1.118-.009,1.83-.026l.034,.348-.983,.271c.463,1.316,1,2.714,1.61,4.193,.158,.39,.299,.763,.423,1.118,.124-.355,.268-.725,.432-1.109,.514-1.265,1.053-2.665,1.618-4.202l-.966-.271-.034-.348c.457,.017,.934,.026,1.431,.026,.508,0,1-.009,1.474-.026l.034,.348-.847,.247c-.13,.045-.24,.154-.33,.329-.447,1.033-.965,2.263-1.555,3.69-.59,1.426-1.035,2.524-1.334,3.299l-.72,.076c-.31-.819-.758-1.94-1.343-3.363-.584-1.423-1.086-2.643-1.503-3.659-.09-.199-.215-.325-.373-.382l-.779-.237-.017-.348Z" id="path36" style="fill:#4d4d4d"/><path class="cls-1" d="M207.023,94.516c0,1.287-.389,2.328-1.166,3.121-.777,.794-1.765,1.19-2.964,1.19-1.17,0-2.116-.374-2.837-1.121-.72-.749-1.081-1.727-1.081-2.936,0-1.242,.378-2.257,1.132-3.045,.755-.788,1.754-1.182,2.998-1.182,1.176,0,2.123,.363,2.841,1.089,.718,.726,1.077,1.686,1.077,2.885Zm-6.311,.076c0,1.055,.196,1.916,.591,2.579,.394,.664,.979,.996,1.755,.996,.726,0,1.279-.293,1.658-.877,.38-.586,.57-1.45,.57-2.597,0-1.078-.2-1.929-.599-2.549-.399-.622-.979-.932-1.739-.932-.72,0-1.273,.28-1.658,.839-.385,.56-.578,1.406-.578,2.542Z" id="path38" style="fill:#4d4d4d"/><path class="cls-1" d="M208.166,86.705l-.042-.278c1.001-.192,1.924-.393,2.77-.602l.076,.067c-.034,.92-.051,2.199-.051,3.837v5.516c0,1.011,.006,1.824,.017,2.439,.017,.164,.096,.265,.237,.304l.923,.28,.026,.348c-.763-.017-1.422-.026-1.978-.026s-1.213,.009-1.97,.026l-.034-.348,.957-.28c.141-.045,.217-.135,.229-.271,.011-.638,.017-1.35,.017-2.134v-3.483c0-2.1-.011-3.786-.034-5.057l-1.144-.339Z" id="path40" style="fill:#4d4d4d"/><path class="cls-1" d="M219.313,97.845c-.883,.655-1.764,.982-2.646,.982-.888,0-1.554-.225-1.998-.677-.444-.452-.666-1.088-.666-1.906v-1.796c0-1.208-.011-2.115-.034-2.719l-1.127-.304-.042-.289c.99-.18,1.907-.378,2.753-.593l.077,.059c-.034,.663-.051,1.511-.051,2.551v2.694c0,.682,.16,1.179,.482,1.485,.321,.309,.774,.463,1.36,.463s1.186-.157,1.8-.466v-3.609c0-.791-.011-1.455-.034-1.991l-1.118-.304-.042-.289c.984-.18,1.898-.378,2.745-.593l.076,.059c-.034,.678-.051,1.546-.051,2.601,0,2.05,.005,3.301,.017,3.753,.005,.231,.023,.418,.051,.56,.028,.141,.082,.249,.161,.326,.079,.076,.196,.129,.352,.161,.155,.03,.362,.05,.622,.054l.042,.33c-.259,.102-.559,.2-.898,.293-.339,.092-.57,.139-.695,.139-.571,0-.95-.324-1.136-.975Z" id="path42" style="fill:#4d4d4d"/><path class="cls-1" d="M225.507,91.661c-.034,1.909-.051,3.448-.051,4.617,0,.588,.087,.992,.263,1.216,.175,.223,.508,.334,.999,.334,.39,0,.898-.05,1.525-.151l.051,.38c-.977,.491-1.85,.738-2.618,.738-.626,0-1.092-.165-1.397-.497-.306-.33-.459-.828-.459-1.495,0-1.095,.02-2.826,.059-5.192l-1.169-.289-.051-.347,1.307-.11,.597-2.05c.323-.085,.618-.166,.883-.246l.085,.059c-.017,.683-.025,1.321-.025,1.915v.314h2.55v.804h-2.55Z" id="path44" style="fill:#4d4d4d"/><path class="cls-1" d="M229.056,91.136c.99-.187,1.907-.384,2.753-.593l.076,.059c-.034,.735-.051,1.543-.051,2.423v3.253c0,.678,.005,1.147,.017,1.406,.011,.153,.082,.252,.212,.297l.983,.288,.017,.348c-.779-.017-1.447-.026-2.003-.026s-1.216,.009-1.978,.026l-.034-.348,.983-.288c.13-.045,.2-.133,.212-.263,.011-.221,.017-.59,.017-1.108v-2.831c0-.74-.012-1.422-.034-2.049l-1.127-.304-.042-.289Zm2.863-3.592c0,.3-.093,.543-.28,.733-.186,.189-.426,.284-.72,.284-.283,0-.513-.087-.691-.263-.178-.175-.267-.406-.267-.694,0-.305,.093-.547,.279-.725,.186-.177,.432-.266,.737-.266,.277,0,.503,.08,.678,.241,.175,.161,.263,.391,.263,.69Z" id="path46" style="fill:#4d4d4d"/><path class="cls-1" d="M242.187,94.516c0,1.287-.389,2.328-1.166,3.121-.777,.794-1.765,1.19-2.964,1.19-1.17,0-2.116-.374-2.837-1.121-.721-.749-1.081-1.727-1.081-2.936,0-1.242,.378-2.257,1.132-3.045,.754-.788,1.754-1.182,2.998-1.182,1.176,0,2.122,.363,2.841,1.089,.718,.726,1.077,1.686,1.077,2.885Zm-6.311,.076c0,1.055,.197,1.916,.591,2.579,.393,.664,.979,.996,1.755,.996,.726,0,1.279-.293,1.659-.877,.379-.586,.57-1.45,.57-2.597,0-1.078-.2-1.929-.6-2.549-.399-.622-.979-.932-1.739-.932-.72,0-1.273,.28-1.658,.839-.385,.56-.578,1.406-.578,2.542Z" id="path48" style="fill:#4d4d4d"/><path class="cls-1" d="M243.347,91.136c.949-.18,1.845-.378,2.687-.593l.085,.059v.983c.984-.694,1.9-1.042,2.748-1.042,.803,0,1.432,.225,1.887,.675,.455,.448,.683,1.084,.683,1.909v2.99c0,.706,.005,1.228,.017,1.567,.005,.153,.079,.252,.22,.297l.94,.288,.017,.348c-.745-.017-1.396-.026-1.952-.026s-1.174,.009-1.851,.026l-.034-.348,.847-.246c.13-.045,.201-.133,.212-.263,.006-.078,.008-.256,.008-.534v-3.693c0-.694-.166-1.193-.498-1.495-.333-.302-.823-.453-1.471-.453-.569,0-1.158,.164-1.766,.491v3.702c0,.706,.005,1.352,.017,1.94,.005,.153,.07,.249,.195,.289l.881,.262,.017,.348c-.701-.017-1.329-.026-1.885-.026s-1.213,.009-1.969,.026l-.034-.348,1-.288c.124-.051,.189-.138,.194-.263,.005-.361,.009-.708,.009-1.041v-2.889c0-.74-.012-1.426-.034-2.058l-1.127-.304-.042-.289Z" id="path50" style="fill:#4d4d4d"/><path class="cls-1" d="M254.072,91.264c1.101-.481,2.075-.722,2.922-.722,.867,0,1.553,.226,2.057,.678,.504,.452,.753,1.104,.747,1.956l-.042,3.525c-.006,.288,.001,.519,.021,.694,.02,.175,.071,.31,.152,.402,.082,.093,.205,.159,.369,.195,.164,.038,.384,.06,.661,.064l.042,.33c-.243,.096-.539,.192-.89,.289-.351,.096-.589,.143-.714,.143-.554,0-.934-.283-1.139-.848-.799,.57-1.553,.855-2.26,.855-.794,0-1.431-.193-1.914-.58-.482-.386-.723-.932-.723-1.638,0-.87,.388-1.511,1.165-1.924,.776-.412,1.995-.618,3.655-.618l.009-.661c.006-.631-.155-1.101-.482-1.406-.328-.305-.831-.457-1.508-.457-.514,0-1.158,.096-1.932,.288l-.195-.566Zm4.109,3.489c-1.188,0-1.999,.121-2.433,.364-.434,.243-.651,.653-.651,1.228,0,.537,.144,.917,.432,1.14,.287,.223,.678,.335,1.171,.335,.559,0,1.047-.099,1.464-.297l.016-2.77Z" id="path52" style="fill:#4d4d4d"/><path class="cls-1" d="M261.771,91.136c.944-.18,1.842-.378,2.694-.593l.085,.059v.992c1.044-.701,2.069-1.051,3.075-1.051l.042,.051c-.164,.841-.324,1.715-.483,2.618l-.339,.059c-.158-.479-.311-.865-.457-1.156-.147-.29-.378-.436-.694-.436-.305,0-.686,.141-1.144,.423v3.669c0,.88,.005,1.51,.017,1.889,.005,.152,.076,.248,.211,.288l1.127,.322,.026,.348c-.881-.017-1.599-.026-2.156-.026s-1.213,.009-1.969,.026l-.034-.348,.983-.288c.136-.045,.206-.133,.212-.263,.006-.242,.008-.59,.008-1.041v-2.889c0-.92-.012-1.607-.034-2.058l-1.127-.304-.043-.289Z" id="path54" style="fill:#4d4d4d"/><path class="cls-1" d="M267.888,90.737c.712,.017,1.344,.026,1.897,.026,.378,0,.983-.009,1.813-.026l.034,.348-.991,.271c.209,.593,.452,1.247,.729,1.961,.277,.715,.57,1.458,.881,2.232,.13,.323,.271,.692,.423,1.111,.158-.424,.327-.856,.508-1.296,.265-.655,.522-1.301,.771-1.935,.248-.636,.505-1.327,.771-2.072l-.966-.271-.034-.348c.418,.017,.906,.026,1.466,.026,.502,0,.991-.009,1.466-.026l.042,.348-.788,.221c-.175,.057-.302,.172-.381,.348-.209,.479-.435,1.005-.678,1.575-.745,1.752-1.31,3.186-1.694,4.304-.26,.756-.494,1.531-.703,2.325-.209,.793-.37,1.475-.483,2.045-.051,.277-.154,.488-.309,.631-.156,.144-.519,.217-1.089,.217-.582,0-1.146-.021-1.694-.061l-.042-.329c.621-.097,1.082-.297,1.381-.602,.361-.39,.921-1.427,1.677-3.109l.068-.161-.119-.035c-1.034-2.574-1.968-4.839-2.804-6.793-.073-.168-.203-.285-.389-.348l-.746-.228-.017-.348Z" id="path56" style="fill:#4d4d4d"/><path class="cls-1" d="M286.601,86.553l3.762,10.361c.141,.389,.269,.653,.385,.792,.116,.138,.281,.241,.496,.309l.796,.237,.017,.365c-.74-.017-1.427-.026-2.059-.026-.644,0-1.403,.009-2.278,.026l-.034-.365,.804-.237c.114-.039,.194-.083,.242-.131,.048-.048,.072-.123,.072-.224,0-.113-.03-.261-.089-.444-.06-.184-.143-.428-.25-.733l-.795-2.27h-4.084l-.889,2.261c-.119,.316-.212,.568-.28,.754s-.101,.334-.101,.44c0,.097,.027,.168,.08,.216,.054,.049,.135,.089,.242,.124l.787,.228,.018,.381c-.802-.017-1.457-.026-1.966-.026s-1.076,.009-1.703,.026l-.042-.365,.856-.263c.215-.067,.373-.171,.474-.312,.102-.141,.215-.362,.339-.662l4.329-10.334,.873-.128Zm-2.702,6.887h3.491l-1.652-4.667-1.838,4.667Z" id="path58" style="fill:#4d4d4d"/><path class="cls-1" d="M300.002,90.601c-.033,1.08-.051,2.367-.051,3.864v5.573c0,.932,.003,1.51,.009,1.736,.005,.153,.07,.249,.195,.289l.974,.297,.016,.347c-.762-.017-1.419-.026-1.969-.026-.562,0-1.219,.009-1.97,.026l-.042-.347,.974-.288c.141-.046,.214-.134,.22-.264,.011-.682,.017-1.539,.017-2.565v-1.212c-.859,.531-1.695,.795-2.507,.795-1.039,0-1.872-.365-2.499-1.096-.627-.731-.94-1.651-.94-2.757,0-1.36,.403-2.441,1.209-3.237,.805-.795,1.924-1.194,3.354-1.194,.588,0,1.28,.068,2.078,.204,.271-.063,.556-.13,.857-.204l.076,.059Zm-1.626,.84c-.447-.113-.879-.171-1.297-.171-.982,0-1.713,.297-2.193,.886-.48,.591-.72,1.416-.72,2.479,0,.977,.219,1.749,.657,2.321,.438,.569,1.076,.855,1.912,.855,.581,0,1.128-.099,1.641-.296v-6.074Z" id="path60" style="fill:#4d4d4d"/><path class="cls-1" d="M308.132,97.845c-.882,.655-1.764,.982-2.646,.982-.888,0-1.554-.225-1.998-.677-.443-.452-.666-1.088-.666-1.906v-1.796c0-1.208-.011-2.115-.034-2.719l-1.126-.304-.042-.289c.989-.18,1.906-.378,2.752-.593l.077,.059c-.034,.663-.051,1.511-.051,2.551v2.694c0,.682,.16,1.179,.482,1.485,.321,.309,.774,.463,1.36,.463s1.186-.157,1.801-.466v-3.609c0-.791-.011-1.455-.034-1.991l-1.118-.304-.042-.289c.983-.18,1.898-.378,2.745-.593l.077,.059c-.034,.678-.051,1.546-.051,2.601,0,2.05,.005,3.301,.017,3.753,.006,.231,.022,.418,.051,.56,.028,.141,.082,.249,.161,.326,.08,.076,.196,.129,.352,.161,.155,.03,.362,.05,.622,.054l.042,.33c-.26,.102-.56,.2-.898,.293-.34,.092-.571,.139-.695,.139-.571,0-.95-.324-1.137-.975Z" id="path62" style="fill:#4d4d4d"/><path class="cls-1" d="M312.378,91.264c1.101-.481,2.075-.722,2.922-.722,.868,0,1.553,.226,2.057,.678,.503,.452,.752,1.104,.748,1.956l-.043,3.525c-.006,.288,.001,.519,.021,.694,.021,.175,.071,.31,.153,.402,.082,.093,.204,.159,.368,.195,.164,.038,.384,.06,.661,.064l.042,.33c-.243,.096-.539,.192-.89,.289-.351,.096-.588,.143-.715,.143-.553,0-.933-.283-1.138-.848-.8,.57-1.553,.855-2.261,.855-.793,0-1.431-.193-1.913-.58-.483-.386-.724-.932-.724-1.638,0-.87,.388-1.511,1.165-1.924,.776-.412,1.996-.618,3.655-.618l.009-.661c.006-.631-.155-1.101-.482-1.406-.328-.305-.831-.457-1.509-.457-.514,0-1.158,.096-1.931,.288l-.195-.566Zm4.108,3.489c-1.188,0-1.998,.121-2.432,.364-.434,.243-.651,.653-.651,1.228,0,.537,.143,.917,.431,1.14,.287,.223,.678,.335,1.171,.335,.559,0,1.046-.099,1.464-.297l.016-2.77Z" id="path64" style="fill:#4d4d4d"/><path class="cls-1" d="M320.079,91.136c.944-.18,1.841-.378,2.693-.593l.085,.059v.992c1.045-.701,2.068-1.051,3.074-1.051l.042,.051c-.164,.841-.324,1.715-.482,2.618l-.338,.059c-.159-.479-.311-.865-.459-1.156-.147-.29-.378-.436-.695-.436-.305,0-.685,.141-1.143,.423v3.669c0,.88,.005,1.51,.017,1.889,.004,.152,.075,.248,.211,.288l1.126,.322,.026,.348c-.881-.017-1.599-.026-2.156-.026s-1.213,.009-1.969,.026l-.034-.348,.982-.288c.136-.045,.206-.133,.211-.263,.006-.242,.009-.59,.009-1.041v-2.889c0-.92-.011-1.607-.034-2.058l-1.127-.304-.042-.289Z" id="path66" style="fill:#4d4d4d"/><path class="cls-1" d="M326.729,91.136c.989-.187,1.907-.384,2.753-.593l.075,.059c-.033,.735-.05,1.543-.05,2.423v3.253c0,.678,.005,1.147,.017,1.406,.011,.153,.081,.252,.211,.297l.982,.288,.017,.348c-.78-.017-1.447-.026-2.003-.026s-1.217,.009-1.978,.026l-.035-.348,.983-.288c.129-.045,.2-.133,.212-.263,.01-.221,.017-.59,.017-1.108v-2.831c0-.74-.012-1.422-.034-2.049l-1.127-.304-.042-.289Zm2.864-3.592c0,.3-.093,.543-.28,.733-.187,.189-.427,.284-.72,.284-.283,0-.513-.087-.691-.263-.179-.175-.267-.406-.267-.694,0-.305,.093-.547,.279-.725,.186-.177,.431-.266,.736-.266,.277,0,.503,.08,.678,.241,.175,.161,.264,.391,.264,.69Z" id="path68" style="fill:#4d4d4d"/><path class="cls-1" d="M337.9,97.845c-.882,.655-1.764,.982-2.645,.982-.888,0-1.554-.225-1.998-.677-.444-.452-.666-1.088-.666-1.906v-1.796c0-1.208-.012-2.115-.035-2.719l-1.126-.304-.043-.289c.99-.18,1.906-.378,2.753-.593l.077,.059c-.034,.663-.051,1.511-.051,2.551v2.694c0,.682,.161,1.179,.482,1.485,.321,.309,.775,.463,1.361,.463s1.186-.157,1.8-.466v-3.609c0-.791-.011-1.455-.034-1.991l-1.118-.304-.042-.289c.983-.18,1.898-.378,2.745-.593l.076,.059c-.034,.678-.051,1.546-.051,2.601,0,2.05,.004,3.301,.016,3.753,.005,.231,.023,.418,.051,.56,.028,.141,.082,.249,.161,.326,.079,.076,.196,.129,.352,.161,.155,.03,.362,.05,.622,.054l.042,.33c-.26,.102-.559,.2-.898,.293-.338,.092-.57,.139-.695,.139-.571,0-.95-.324-1.137-.975Z" id="path70" style="fill:#4d4d4d"/><path class="cls-1" d="M349.304,92.194c.08,.272,.118,.577,.118,.915v3.024c0,.662,.006,1.192,.017,1.594,.012,.151,.085,.251,.221,.296l.855,.246,.017,.348c-.689-.017-1.311-.026-1.867-.026s-1.174,.009-1.852,.026l-.033-.348,.804-.237c.164-.057,.248-.147,.254-.272,.005-.078,.009-.256,.009-.534v-3.693c0-.694-.158-1.193-.473-1.495-.316-.302-.783-.453-1.403-.453-.547,0-1.104,.164-1.673,.491v3.702c0,.706,.005,1.352,.017,1.94,.004,.171,.064,.266,.177,.289l.898,.262,.017,.348c-.7-.017-1.329-.026-1.885-.026s-1.213,.009-1.971,.026l-.033-.348,.974-.288c.141-.039,.215-.127,.22-.263,.005-.299,.008-.645,.008-1.041v-2.889c0-.74-.011-1.426-.034-2.058l-1.127-.304-.042-.289c.932-.18,1.824-.378,2.678-.593l.085,.059v.983c.928-.694,1.808-1.042,2.639-1.042,1.018,0,1.753,.393,2.205,1.178,.895-.785,1.864-1.178,2.91-1.178,.786,0,1.401,.222,1.845,.665,.444,.443,.666,1.078,.666,1.902v2.999c0,.712,.005,1.237,.017,1.576,.011,.153,.087,.252,.229,.297l.94,.288,.017,.348c-.745-.017-1.398-.026-1.957-.026-.565,0-1.183,.009-1.855,.026l-.035-.348,.839-.246c.13-.045,.204-.133,.221-.263,.005-.078,.007-.256,.007-.534v-3.693c0-.694-.16-1.193-.48-1.495-.322-.302-.796-.453-1.421-.453-.63,0-1.219,.203-1.766,.61Z" id="path72" style="fill:#4d4d4d"/><path class="cls-1" d="M366.866,87.502c-.594-.198-1.139-.297-1.636-.297-.745,0-1.34,.18-1.783,.542-.443,.361-.666,.864-.666,1.507,0,.367,.078,.689,.233,.966,.155,.277,.366,.519,.627,.728,.263,.21,.561,.396,.894,.56,.332,.164,.678,.325,1.033,.482,.391,.17,.767,.349,1.136,.538,.367,.189,.699,.411,.995,.665,.296,.255,.534,.56,.711,.915,.178,.356,.268,.77,.268,1.246,0,1.122-.44,1.981-1.318,2.574-.879,.593-2.015,.89-3.41,.89-.898,0-1.893-.153-2.983-.459l-.049-.067,.415-2.88,.381-.059,.594,2.405c.599,.238,1.211,.356,1.839,.356,.841,0,1.497-.187,1.969-.56,.472-.373,.707-.903,.707-1.592,0-.362-.076-.679-.228-.953-.153-.275-.357-.511-.614-.707-.257-.199-.55-.378-.877-.539-.328-.16-.666-.319-1.017-.478-.396-.168-.779-.352-1.151-.551-.373-.197-.711-.427-1.014-.69-.302-.263-.542-.585-.723-.966-.181-.38-.271-.826-.271-1.333,0-1.022,.428-1.812,1.283-2.372,.855-.56,1.916-.839,3.181-.839,.892,0,1.827,.104,2.804,.313l.059,.06-.5,2.643-.338,.06-.55-2.109Z" id="path74" style="fill:#4d4d4d"/><path class="cls-1" d="M368.322,90.737c.712,.017,1.344,.026,1.898,.026,.378,0,.982-.009,1.812-.026l.034,.348-.992,.271c.209,.593,.452,1.247,.729,1.961,.277,.715,.571,1.458,.881,2.232,.13,.323,.272,.692,.423,1.111,.158-.424,.328-.856,.508-1.296,.266-.655,.524-1.301,.771-1.935,.249-.636,.505-1.327,.771-2.072l-.965-.271-.034-.348c.418,.017,.907,.026,1.465,.026,.502,0,.99-.009,1.466-.026l.042,.348-.788,.221c-.175,.057-.302,.172-.38,.348-.21,.479-.436,1.005-.678,1.575-.746,1.752-1.31,3.186-1.694,4.304-.26,.756-.495,1.531-.702,2.325-.21,.793-.371,1.475-.484,2.045-.051,.277-.154,.488-.309,.631-.157,.144-.519,.217-1.089,.217-.582,0-1.146-.021-1.694-.061l-.043-.329c.622-.097,1.082-.297,1.382-.602,.361-.39,.919-1.427,1.677-3.109l.068-.161-.119-.035c-1.034-2.574-1.968-4.839-2.805-6.793-.073-.168-.203-.285-.389-.348l-.745-.228-.017-.348Z" id="path76" style="fill:#4d4d4d"/><path class="cls-1" d="M382.062,91.399c-.328-.09-.683-.135-1.067-.135-.519,0-.94,.101-1.262,.307s-.483,.488-.483,.843c0,.344,.098,.613,.293,.805,.196,.191,.564,.384,1.105,.576l.676,.237c.735,.265,1.276,.57,1.623,.915,.348,.343,.523,.793,.523,1.346,0,.786-.341,1.404-1.021,1.856-.681,.452-1.487,.677-2.418,.677-.86,0-1.737-.174-2.635-.525,.192-.733,.347-1.452,.466-2.152l.331-.051,.61,1.821c.322,.125,.731,.187,1.229,.187,.513,0,.926-.108,1.236-.322,.31-.215,.466-.517,.466-.906,0-.367-.103-.651-.309-.852-.206-.2-.538-.377-.996-.529l-.881-.297c-.763-.254-1.291-.56-1.588-.919-.297-.359-.445-.806-.445-1.343,0-.74,.355-1.323,1.063-1.753,.71-.429,1.524-.644,2.444-.644,.858,0,1.638,.124,2.338,.373-.159,.644-.302,1.325-.432,2.042l-.322,.059-.543-1.617Z" id="path78" style="fill:#4d4d4d"/><path class="cls-1" d="M386.89,91.661c-.034,1.909-.05,3.448-.05,4.617,0,.588,.087,.992,.262,1.216,.176,.223,.509,.334,1,.334,.39,0,.898-.05,1.525-.151l.051,.38c-.977,.491-1.85,.738-2.619,.738-.625,0-1.091-.165-1.397-.497-.305-.33-.458-.828-.458-1.495,0-1.095,.02-2.826,.06-5.192l-1.169-.289-.051-.347,1.306-.11,.598-2.05c.323-.085,.618-.166,.883-.246l.085,.059c-.017,.683-.026,1.321-.026,1.915v.314h2.55v.804h-2.55Z" id="path80" style="fill:#4d4d4d"/><path class="cls-1" d="M397.412,97.988c-.48,.3-.975,.514-1.482,.645-.509,.129-.98,.193-1.415,.193-1.243,0-2.247-.354-3.012-1.063-.765-.708-1.148-1.692-1.148-2.952,0-1.253,.357-2.279,1.071-3.075,.714-.795,1.669-1.194,2.863-1.194,1.001,0,1.78,.299,2.338,.893,.557,.597,.836,1.419,.836,2.47,0,.158-.009,.318-.026,.482h-5.345c0,1.215,.285,2.084,.855,2.606,.57,.523,1.463,.783,2.678,.783,.542,0,1.121-.05,1.735-.152l.052,.363Zm-1.686-4.303v-.254c0-.801-.125-1.375-.377-1.719-.252-.344-.626-.517-1.124-.517-.658,0-1.162,.243-1.51,.729-.348,.486-.544,1.072-.589,1.761h3.6Z" id="path82" style="fill:#4d4d4d"/><path class="cls-1" d="M406.281,92.194c.078,.272,.118,.577,.118,.915v3.024c0,.662,.005,1.192,.017,1.594,.011,.151,.085,.251,.22,.296l.856,.246,.017,.348c-.69-.017-1.313-.026-1.868-.026s-1.173,.009-1.851,.026l-.034-.348,.805-.237c.163-.057,.248-.147,.254-.272,.005-.078,.008-.256,.008-.534v-3.693c0-.694-.158-1.193-.473-1.495-.315-.302-.783-.453-1.403-.453-.547,0-1.104,.164-1.673,.491v3.702c0,.706,.005,1.352,.016,1.94,.007,.171,.065,.266,.178,.289l.898,.262,.017,.348c-.7-.017-1.329-.026-1.885-.026s-1.213,.009-1.969,.026l-.035-.348,.975-.288c.14-.039,.214-.127,.22-.263,.006-.299,.009-.645,.009-1.041v-2.889c0-.74-.011-1.426-.034-2.058l-1.126-.304-.043-.289c.933-.18,1.826-.378,2.68-.593l.084,.059v.983c.927-.694,1.807-1.042,2.638-1.042,1.018,0,1.754,.393,2.206,1.178,.893-.785,1.863-1.178,2.909-1.178,.786,0,1.402,.222,1.845,.665,.445,.443,.667,1.078,.667,1.902v2.999c0,.712,.005,1.237,.016,1.576,.012,.153,.088,.252,.229,.297l.94,.288,.017,.348c-.745-.017-1.397-.026-1.956-.026-.564,0-1.184,.009-1.856,.026l-.033-.348,.839-.246c.129-.045,.203-.133,.22-.263,.006-.078,.009-.256,.009-.534v-3.693c0-.694-.161-1.193-.482-1.495-.32-.302-.794-.453-1.419-.453-.631,0-1.22,.203-1.766,.61Z" id="path84" style="fill:#4d4d4d"/></g><rect class="cls-1" x="36.51" y="93.511" width="101.944" height="1.804" id="rect88" style="fill:#4d4d4d"/><rect class="cls-1" x="421.056" y="93.511" width="101.944" height="1.804" id="rect90" style="fill:#4d4d4d"/></svg>