<?xml version="1.0" encoding="UTF-8" standalone="no"?>
<!-- Created with Inkscape (http://www.inkscape.org/) -->

<svg
   width="76.508217mm"
   height="15.934669mm"
   viewBox="0 0 76.508217 15.934669"
   version="1.1"
   id="svg8"
   inkscape:export-filename="C:\Users\marci\Desktop\logo-skalisty-facebook-2020.png"
   inkscape:export-xdpi="96"
   inkscape:export-ydpi="96"
   inkscape:version="1.2.2 (b0a8486541, 2022-12-01)"
   sodipodi:docname="skalisty-logo.svg"
   xmlns:inkscape="http://www.inkscape.org/namespaces/inkscape"
   xmlns:sodipodi="http://sodipodi.sourceforge.net/DTD/sodipodi-0.dtd"
   xmlns="http://www.w3.org/2000/svg"
   xmlns:svg="http://www.w3.org/2000/svg"
   xmlns:rdf="http://www.w3.org/1999/02/22-rdf-syntax-ns#"
   xmlns:cc="http://creativecommons.org/ns#"
   xmlns:dc="http://purl.org/dc/elements/1.1/">
  <defs
     id="defs2">
    <inkscape:path-effect
       fuse_tolerance="0"
       vertical_pattern="false"
       prop_units="false"
       tang_offset="0"
       normal_offset="0"
       spacing="0"
       scale_y_rel="false"
       prop_scale="0.26458333"
       copytype="single_stretched"
       pattern="M 0,5 C 0,2.24 2.24,0 5,0 7.76,0 10,2.24 10,5 10,7.76 7.76,10 5,10 2.24,10 0,7.76 0,5 Z"
       is_visible="true"
       id="path-effect867-8-4-3-7-2"
       effect="skeletal"
       lpeversion="0"
       hide_knot="false" />
  </defs>
  <sodipodi:namedview
     id="base"
     pagecolor="#ffffff"
     bordercolor="#666666"
     borderopacity="1.0"
     inkscape:pageopacity="0.0"
     inkscape:pageshadow="2"
     inkscape:zoom="3.2809757"
     inkscape:cx="157.57508"
     inkscape:cy="13.410645"
     inkscape:document-units="mm"
     inkscape:current-layer="layer1"
     showgrid="false"
     inkscape:window-width="1920"
     inkscape:window-height="1135"
     inkscape:window-x="1920"
     inkscape:window-y="36"
     inkscape:window-maximized="1"
     showguides="true"
     inkscape:guide-bbox="true"
     inkscape:snap-bbox="false"
     inkscape:snap-global="true"
     inkscape:snap-text-baseline="true"
     inkscape:showpageshadow="2"
     inkscape:pagecheckerboard="0"
     inkscape:deskcolor="#d1d1d1" />
  <metadata
     id="metadata5">
    <rdf:RDF>
      <cc:Work
         rdf:about="">
        <dc:format>image/svg+xml</dc:format>
        <dc:type
           rdf:resource="http://purl.org/dc/dcmitype/StillImage" />
      </cc:Work>
    </rdf:RDF>
  </metadata>
  <g
     inkscape:label="Layer 1"
     inkscape:groupmode="layer"
     id="layer1"
     transform="translate(-4.1284214,-93.935231)">
    <g
       id="g1467-7-7"
       transform="matrix(0.39744118,0,0,0.39744118,-62.589825,83.672393)"
       inkscape:export-xdpi="96"
       inkscape:export-ydpi="96">
      <path
         inkscape:connector-curvature="0"
         id="path1059-6-0-2-1"
         d="M 242.6182,49.937579 H 360.33445"
         style="font-style:normal;font-variant:normal;font-weight:normal;font-stretch:normal;font-size:24.8673px;line-height:1.25;font-family:Chiller;-inkscape-font-specification:Chiller;letter-spacing:0px;word-spacing:0px;fill:none;fill-opacity:1;stroke:#ef161e;stroke-width:0.578499;stroke-linecap:butt;stroke-linejoin:miter;stroke-miterlimit:4;stroke-dasharray:none;stroke-opacity:0.866667" />
      <path
         d="m 244.63471,57.813506 q -0.88028,0 -1.38404,-0.294215 -0.50378,-0.294214 -0.50378,-0.805892 0,-0.329392 0.24924,-0.57244 0.24923,-0.243047 0.70528,-0.374164 0.45605,-0.134315 1.07118,-0.134315 0.39772,0 0.7424,0.05437 0.35,0.05117 0.65756,0.1567 v -0.230254 q 0,-0.380561 -0.28635,-0.55645 -0.28636,-0.179087 -0.89089,-0.179087 -0.38711,0 -0.80604,0.08635 -0.41363,0.08635 -0.77421,0.239848 l -0.26515,-0.466906 q 0.40832,-0.163097 0.92801,-0.252641 0.52497,-0.09274 1.03406,-0.09274 0.96512,0 1.44768,0.297413 0.48257,0.294214 0.48257,0.879446 v 2.168234 h -0.86968 v -0.300611 q -0.31817,0.182285 -0.71589,0.281423 -0.39771,0.09594 -0.82195,0.09594 z m 0.13788,-0.486094 q 0.37651,0 0.7424,-0.11193 0.37121,-0.111929 0.65756,-0.3166 v -0.562845 q -0.27045,-0.102336 -0.61513,-0.1599 -0.34469,-0.05757 -0.65756,-0.05757 -0.59393,0 -0.93861,0.163097 -0.34469,0.159899 -0.34469,0.438124 0,0.281422 0.30757,0.44452 0.30757,0.163097 0.84846,0.163097 z"
         style="font-weight:normal;font-size:8.23615px;font-family:Overpass;-inkscape-font-specification:Overpass;stroke:#ffffff;stroke-width:0.25738"
         id="path1153" />
      <path
         d="m 248.78159,57.736755 v -3.268342 h 0.92269 v 0.42853 q 0.18561,-0.249443 0.50908,-0.377362 0.32878,-0.12792 0.77423,-0.12792 0.49316,0 0.83784,0.166296 l -0.13787,0.524469 q -0.17499,-0.07356 -0.36589,-0.105533 -0.18561,-0.03518 -0.40832,-0.03518 -0.3659,0 -0.63635,0.118326 -0.27045,0.118325 -0.42423,0.33259 -0.14849,0.214265 -0.14849,0.502084 v 1.84204 z"
         style="font-weight:normal;font-size:8.23615px;font-family:Overpass;-inkscape-font-specification:Overpass;stroke:#ffffff;stroke-width:0.25738"
         id="path1155" />
      <path
         d="m 254.57232,57.813506 q -0.5568,0 -0.85376,-0.201473 -0.29165,-0.201473 -0.29165,-0.578836 v -2.07869 h -0.88028 v -0.486094 h 0.88028 v -1.080919 l 0.92269,-0.268631 v 1.34955 h 1.33634 v 0.486094 h -1.33634 v 1.893208 q 0,0.233452 0.13257,0.342184 0.13788,0.105533 0.42954,0.105533 0.3712,0 0.80604,-0.172691 l -0.1061,0.543658 q -0.23863,0.07675 -0.49846,0.111929 -0.25454,0.03518 -0.5409,0.03518 z"
         style="font-weight:normal;font-size:8.23615px;font-family:Overpass;-inkscape-font-specification:Overpass;stroke:#ffffff;stroke-width:0.25738"
         id="path1157" />
      <path
         d="m 256.87377,57.736755 v -3.268342 h 0.92271 v 3.268342 z m 0.45605,-3.863167 q -0.23862,0 -0.40832,-0.09914 -0.16438,-0.102336 -0.16438,-0.246246 0,-0.150305 0.16438,-0.25264 0.1697,-0.105534 0.40832,-0.105534 0.24924,0 0.41363,0.105534 0.16969,0.102335 0.16969,0.25264 0,0.14391 -0.16969,0.246246 -0.16439,0.09914 -0.41363,0.09914 z"
         style="font-weight:normal;font-size:8.23615px;font-family:Overpass;-inkscape-font-specification:Overpass;stroke:#ffffff;stroke-width:0.25738"
         id="path1159" />
      <path
         d="m 259.8646,57.736755 v -2.782248 h -0.83786 v -0.486094 h 0.83786 v -0.543658 q 0,-0.351778 0.30757,-0.546855 0.31286,-0.195077 0.86967,-0.195077 0.27044,0 0.51968,0.03838 0.24924,0.03838 0.48786,0.115127 v 0.466906 q -0.22801,-0.06396 -0.40832,-0.09274 -0.18029,-0.02878 -0.3659,-0.02878 -0.25983,0 -0.3765,0.07995 -0.11139,0.07675 -0.11139,0.259037 v 0.447718 h 1.26209 v 0.486094 h -1.26209 v 2.782247 z m 3.23475,0 v -3.268342 h 0.92271 v 3.268342 z m 0.45606,-3.863167 q -0.23864,0 -0.40832,-0.09914 -0.1644,-0.102336 -0.1644,-0.246246 0,-0.150305 0.1644,-0.25264 0.16968,-0.105534 0.40832,-0.105534 0.24923,0 0.41362,0.105534 0.1697,0.102335 0.1697,0.25264 0,0.14391 -0.1697,0.246246 -0.16439,0.09914 -0.41362,0.09914 z"
         style="font-weight:normal;font-size:8.23615px;font-family:Overpass;-inkscape-font-specification:Overpass;stroke:#ffffff;stroke-width:0.25738"
         id="path1161" />
      <path
         d="m 267.71287,57.813506 q -0.69999,0 -1.20377,-0.204671 -0.50376,-0.207869 -0.77422,-0.588429 -0.27044,-0.383759 -0.27044,-0.914625 0,-0.534063 0.27575,-0.917821 0.27575,-0.383758 0.78483,-0.588429 0.51438,-0.20787 1.23026,-0.20787 0.69999,0 1.18785,0.195078 0.48786,0.195076 0.71059,0.566043 l -0.86967,0.19188 q -0.13257,-0.211068 -0.39772,-0.322997 -0.25984,-0.11193 -0.62043,-0.11193 -0.65756,0 -1.00756,0.307007 -0.34999,0.307007 -0.34999,0.889039 0,0.569242 0.34468,0.876249 0.3447,0.307006 0.98105,0.307006 0.40832,0 0.69468,-0.127919 0.29165,-0.12792 0.40832,-0.358174 l 0.85907,0.172691 q -0.19621,0.402946 -0.71589,0.620409 -0.5197,0.217463 -1.26739,0.217463 z"
         style="font-weight:normal;font-size:8.23615px;font-family:Overpass;-inkscape-font-specification:Overpass;stroke:#ffffff;stroke-width:0.25738"
         id="path1163" />
      <path
         d="m 271.0961,57.736755 v -3.268342 h 0.9227 v 3.268342 z m 0.45605,-3.863167 q -0.23863,0 -0.40832,-0.09914 -0.16439,-0.102336 -0.16439,-0.246246 0,-0.150305 0.16439,-0.25264 0.16969,-0.105534 0.40832,-0.105534 0.24923,0 0.41362,0.105534 0.1697,0.102335 0.1697,0.25264 0,0.14391 -0.1697,0.246246 -0.16439,0.09914 -0.41362,0.09914 z"
         style="font-weight:normal;font-size:8.23615px;font-family:Overpass;-inkscape-font-specification:Overpass;stroke:#ffffff;stroke-width:0.25738"
         id="path1165" />
      <path
         d="m 275.34901,57.813506 c 0,0 -0.50737,-0.02025 -0.72219,-0.06074 -0.25799,-0.04863 -0.47861,-0.126453 -0.66187,-0.233478 -0.33584,-0.196137 -0.50376,-0.464773 -0.50376,-0.805892 0,-0.219595 0.0831,-0.410408 0.24923,-0.57244 0.16616,-0.162031 0.40125,-0.286753 0.70528,-0.374164 0.30403,-0.08954 0.66109,-0.134315 1.07118,-0.134315 0.26515,0 0.51262,0.01812 0.74241,0.05437 0.23333,0.03411 0.45252,0.08635 0.65755,0.1567 v -0.230254 c 0,-0.253707 -0.0955,-0.439191 -0.28635,-0.55645 -0.19091,-0.119391 -0.48787,-0.179087 -0.89088,-0.179087 -0.25808,0 -0.52676,0.02878 -0.80605,0.08635 -0.27575,0.05757 -0.53382,0.137516 -0.77422,0.239848 l -0.26514,-0.466906 c 0.27221,-0.108731 0.58155,-0.192945 0.928,-0.252641 0.34999,-0.06183 0.69468,-0.09274 1.03407,-0.09274 0.64342,0 1.12598,0.09914 1.44768,0.297413 0.32171,0.196143 0.48257,0.489291 0.48257,0.879446 v 2.168234 h -0.86968 v -0.300611 c -0.21211,0.121523 -0.45074,0.215331 -0.71589,0.281423 -0.26514,0.06396 -0.53912,0.09594 -0.82194,0.09594 z m 0.13787,-0.486094 c 0.251,0 0.49847,-0.03731 0.74241,-0.11193 0.24747,-0.07462 0.46665,-0.180153 0.65755,-0.3166 v -0.562845 c -0.18029,-0.06822 -0.38533,-0.121524 -0.61512,-0.1599 -0.2298,-0.03838 -0.44899,-0.05757 -0.65756,-0.05757 -0.39595,0 -0.70882,0.05437 -0.93861,0.163097 -0.22979,0.106599 -0.34469,0.252641 -0.34469,0.438124 0,0.187615 0.10252,0.335788 0.30756,0.44452 0.20505,0.108731 0.48787,0.163097 0.84846,0.163097 z"
         style="font-weight:normal;font-size:8.23615px;font-family:Overpass;-inkscape-font-specification:Overpass;stroke:#ffffff;stroke-width:0.25738"
         id="path1167"
         sodipodi:nodetypes="ssssscsccscsccccscsccccssscccsscssss" />
      <path
         d="m 279.41104,57.736755 v -4.355656 l 0.92269,-0.262236 v 4.617892 z"
         style="font-weight:normal;font-size:8.23615px;font-family:Overpass;-inkscape-font-specification:Overpass;stroke:#ffffff;stroke-width:0.25738"
         id="path1169" />
      <path
         d="m 284.62906,57.736755 v -3.268342 h 0.92271 v 0.42853 q 0.1856,-0.249443 0.50907,-0.377362 0.32878,-0.12792 0.77422,-0.12792 0.49317,0 0.83787,0.166296 l -0.13788,0.524469 q -0.175,-0.07356 -0.3659,-0.105533 -0.1856,-0.03518 -0.40832,-0.03518 -0.3659,0 -0.63635,0.118326 -0.27044,0.118325 -0.42423,0.33259 -0.14848,0.214265 -0.14848,0.502084 v 1.84204 z"
         style="font-weight:normal;font-size:8.23615px;font-family:Overpass;-inkscape-font-specification:Overpass;stroke:#ffffff;stroke-width:0.25738"
         id="path1171" />
      <path
         d="m 290.56829,57.813506 q -1.1136,0 -1.75525,-0.457312 -0.64166,-0.46051 -0.64166,-1.250413 0,-0.527667 0.29167,-0.911425 0.29165,-0.383758 0.82725,-0.591628 0.54089,-0.211067 1.27799,-0.211067 0.74241,0 1.278,0.20787 0.54089,0.204671 0.82725,0.588429 0.29165,0.383758 0.29165,0.911426 0,0.527668 -0.29165,0.914624 -0.29166,0.383758 -0.83256,0.591626 -0.53558,0.20787 -1.27269,0.20787 z m 0,-0.518074 q 0.68408,0 1.07119,-0.3166 0.3924,-0.319799 0.3924,-0.879446 0,-0.562846 -0.3924,-0.879446 -0.38711,-0.316601 -1.07119,-0.316601 -0.68938,0 -1.07648,0.316601 -0.38711,0.313402 -0.38711,0.885841 0,0.559648 0.38711,0.876249 0.3871,0.313402 1.07648,0.313402 z"
         style="font-weight:normal;font-size:8.23615px;font-family:Overpass;-inkscape-font-specification:Overpass;stroke:#ffffff;stroke-width:0.25738"
         id="path1173" />
      <path
         d="m 296.50754,57.813506 q -0.69999,0 -1.20375,-0.204671 -0.50378,-0.207869 -0.77423,-0.588429 -0.27044,-0.383759 -0.27044,-0.914625 0,-0.534063 0.27575,-0.917821 0.27575,-0.383758 0.78482,-0.588429 0.51437,-0.20787 1.23028,-0.20787 0.69997,0 1.18783,0.195078 0.48788,0.195076 0.7106,0.566043 l -0.86968,0.19188 q -0.13257,-0.211068 -0.39771,-0.322997 -0.25985,-0.11193 -0.62045,-0.11193 -0.65755,0 -1.00754,0.307007 -0.35,0.307007 -0.35,0.889039 0,0.569242 0.3447,0.876249 0.34468,0.307006 0.98103,0.307006 0.40832,0 0.69468,-0.127919 0.29165,-0.12792 0.40832,-0.358174 l 0.85906,0.172691 q -0.1962,0.402946 -0.71588,0.620409 -0.51968,0.217463 -1.26739,0.217463 z"
         style="font-weight:normal;font-size:8.23615px;font-family:Overpass;-inkscape-font-specification:Overpass;stroke:#ffffff;stroke-width:0.25738"
         id="path1175" />
      <path
         d="m 299.88018,57.736755 v -4.355656 l 0.92269,-0.262236 v 2.475241 l 1.76056,-1.125691 h 1.103 l -1.42117,0.88904 2.03631,2.379302 h -1.00755 l -1.67572,-1.976356 -0.79543,0.498886 v 1.47747 z"
         style="font-weight:normal;font-size:8.23615px;font-family:Overpass;-inkscape-font-specification:Overpass;stroke:#ffffff;stroke-width:0.25738"
         id="path1177" />
      <path
         d="m 306.90118,57.813506 q -0.57271,0 -1.103,-0.147107 -0.52499,-0.150306 -0.85906,-0.402947 l 0.65756,-0.338986 q 0.28634,0.185483 0.63634,0.287818 0.34999,0.102336 0.68938,0.102336 0.47725,0 0.7424,-0.108731 0.26514,-0.11193 0.26514,-0.307007 0,-0.127919 -0.12194,-0.230255 -0.11667,-0.102336 -0.39241,-0.195077 -0.27044,-0.09274 -0.7265,-0.195077 -0.89618,-0.201473 -1.2886,-0.438124 -0.38711,-0.236651 -0.38711,-0.585232 0,-0.383758 0.50378,-0.623606 0.50907,-0.23985 1.32042,-0.23985 0.55679,0 1.02346,0.12792 0.46665,0.124721 0.80072,0.36457 l -0.63633,0.319799 q -0.48788,-0.313403 -1.19846,-0.313403 -0.41893,0 -0.66286,0.09914 -0.23863,0.09594 -0.23863,0.265432 0,0.163098 0.27045,0.287819 0.27575,0.121524 0.99163,0.281423 0.58332,0.12792 0.94392,0.278224 0.36589,0.150306 0.53028,0.342185 0.16969,0.191879 0.16969,0.441322 0,0.431728 -0.51437,0.681171 -0.51438,0.246245 -1.41588,0.246245 z"
         style="font-weight:normal;font-size:8.23615px;font-family:Overpass;-inkscape-font-specification:Overpass;stroke:#ffffff;stroke-width:0.25738"
         id="path1179" />
      <path
         d="m 314.59037,57.813506 q -0.63104,0 -1.11361,-0.153503 -0.47725,-0.153504 -0.74771,-0.42853 -0.27044,-0.278225 -0.27044,-0.65239 0,-0.338986 0.22803,-0.585231 0.23333,-0.249443 0.62043,-0.438124 0.39241,-0.188681 0.86968,-0.351778 -0.43484,-0.326194 -0.64166,-0.553252 -0.2068,-0.227057 -0.2068,-0.495687 0,-0.303809 0.23862,-0.521272 0.23863,-0.217463 0.64166,-0.33259 0.40301,-0.118326 0.90148,-0.118326 0.49848,0 0.89089,0.12792 0.39241,0.124721 0.62043,0.34858 0.22803,0.220661 0.22803,0.50848 0,0.383758 -0.39242,0.64919 -0.38711,0.262235 -0.98633,0.489293 l 1.38936,1.004167 q 0.14317,-0.188681 0.21211,-0.367768 0.0689,-0.182286 0.0849,-0.310205 h 0.88028 q -0.016,0.249443 -0.14849,0.537262 -0.12722,0.287818 -0.41362,0.582032 l 1.36815,0.984981 h -1.19846 l -0.73179,-0.530866 q -0.45075,0.287818 -1.05528,0.447718 -0.59922,0.159899 -1.26738,0.159899 z m 0.14849,-0.518074 q 0.44014,0 0.85905,-0.134315 0.41893,-0.134315 0.75302,-0.36457 l -1.66511,-1.215235 q -0.58861,0.220661 -0.9386,0.441322 -0.3447,0.220661 -0.3447,0.52447 0,0.335788 0.37121,0.543657 0.3712,0.204671 0.96513,0.204671 z m 0.22271,-2.360113 q 0.47196,-0.163097 0.73711,-0.338986 0.27044,-0.179087 0.27044,-0.390155 0,-0.249442 -0.26515,-0.390154 -0.25983,-0.140712 -0.62574,-0.140712 -0.38711,0 -0.63104,0.131118 -0.23862,0.131118 -0.23862,0.348581 0,0.172691 0.21211,0.358174 0.21741,0.185483 0.54089,0.422134 z"
         style="font-weight:normal;font-size:8.23615px;font-family:Overpass;-inkscape-font-specification:Overpass;stroke:#ffffff;stroke-width:0.25738"
         id="path1181" />
      <path
         d="m 323.94466,57.813506 q -0.5568,0 -0.85376,-0.201473 -0.29167,-0.201473 -0.29167,-0.578836 v -2.07869 h -0.88027 v -0.486094 h 0.88027 v -1.080919 l 0.92271,-0.268631 v 1.34955 h 1.33632 v 0.486094 h -1.33632 v 1.893208 q 0,0.233452 0.13257,0.342184 0.13788,0.105533 0.42953,0.105533 0.37121,0 0.80604,-0.172691 l -0.10611,0.543658 q -0.23862,0.07675 -0.49847,0.111929 -0.25454,0.03518 -0.54089,0.03518 z"
         style="font-weight:normal;font-size:8.23615px;font-family:Overpass;-inkscape-font-specification:Overpass;stroke:#ffffff;stroke-width:0.25738"
         id="path1183" />
      <path
         d="m 326.23551,57.736755 v -4.362053 l 0.9227,-0.255839 V 54.8074 q 0.24923,-0.207869 0.59922,-0.310205 0.35529,-0.105534 0.80074,-0.105534 0.70529,0 1.12951,0.175889 0.42954,0.17589 0.62044,0.505282 0.19091,0.326195 0.19091,0.783506 v 1.880417 h -0.92271 v -1.976356 q 0,-0.383758 -0.28635,-0.620409 -0.28105,-0.236651 -0.88028,-0.236651 -0.62044,0 -0.93861,0.214265 -0.31287,0.211067 -0.31287,0.630003 v 1.989148 z"
         style="font-weight:normal;font-size:8.23615px;font-family:Overpass;-inkscape-font-specification:Overpass;stroke:#ffffff;stroke-width:0.25738"
         id="path1185" />
      <path
         d="m 334.45496,57.813506 q -0.7424,0 -1.28329,-0.220661 -0.54091,-0.220661 -0.83256,-0.607617 -0.29166,-0.386956 -0.29166,-0.885842 0,-0.540459 0.30226,-0.92102 0.30228,-0.383758 0.84317,-0.585231 0.54088,-0.201474 1.26208,-0.201474 0.60983,0 1.1189,0.166296 0.50909,0.163097 0.81135,0.508479 0.30757,0.342185 0.30757,0.879447 0,0.07675 -0.0103,0.179087 -0.005,0.09914 -0.0213,0.204671 h -3.6696 q 0.0531,0.297413 0.24393,0.521271 0.19091,0.223859 0.50378,0.351779 0.31288,0.124721 0.7371,0.124721 0.34469,0 0.63635,-0.07356 0.29695,-0.07356 0.5515,-0.227057 l 0.5409,0.36457 q -0.30227,0.182286 -0.75302,0.30381 -0.44544,0.118324 -0.99694,0.118324 z m -1.4742,-1.969959 h 2.77871 q 0,-0.278225 -0.15379,-0.495688 -0.14847,-0.220661 -0.44014,-0.345383 -0.29165,-0.12472 -0.71058,-0.12472 -0.58863,0 -1.01285,0.230254 -0.41893,0.230255 -0.46135,0.735537 z"
         style="font-weight:normal;font-size:8.23615px;font-family:Overpass;-inkscape-font-specification:Overpass;stroke:#ffffff;stroke-width:0.25738"
         id="path1187" />
      <path
         d="m 338.17758,57.736755 v -3.268342 h 0.92271 v 0.307007 q 0.23332,-0.188681 0.59922,-0.284621 0.3712,-0.09914 0.82195,-0.09914 0.47196,0 0.85376,0.12792 0.38711,0.124721 0.59923,0.351778 0.24923,-0.230255 0.65755,-0.354976 0.41363,-0.124722 0.9121,-0.124722 0.87498,0 1.38936,0.326195 0.51968,0.322996 0.51968,0.876248 v 2.142651 h -0.92269 v -1.982752 q 0,-0.409341 -0.28637,-0.630003 -0.28105,-0.220661 -0.80604,-0.220661 -0.34998,0 -0.61512,0.108732 -0.25985,0.108731 -0.40833,0.307006 -0.14317,0.195077 -0.14317,0.454115 v 1.963563 h -0.92271 v -1.982752 q 0,-0.418936 -0.27575,-0.633201 -0.27045,-0.217463 -0.80604,-0.217463 -0.54089,0 -0.85377,0.227057 -0.31286,0.227057 -0.31286,0.617211 v 1.989148 z"
         style="font-weight:normal;font-size:8.23615px;font-family:Overpass;-inkscape-font-specification:Overpass;stroke:#ffffff;stroke-width:0.25738"
         id="path1189" />
      <path
         d="m 347.17128,57.736755 v -3.268342 h 0.92269 v 3.268342 z m 0.45604,-3.863167 q -0.23862,0 -0.40832,-0.09914 -0.16439,-0.102336 -0.16439,-0.246246 0,-0.150305 0.16439,-0.25264 0.1697,-0.105534 0.40832,-0.105534 0.24924,0 0.41363,0.105534 0.16969,0.102335 0.16969,0.25264 0,0.14391 -0.16969,0.246246 -0.16439,0.09914 -0.41363,0.09914 z"
         style="font-weight:normal;font-size:8.23615px;font-family:Overpass;-inkscape-font-specification:Overpass;stroke:#ffffff;stroke-width:0.25738"
         id="path1191" />
      <path
         d="m 349.85453,57.736755 v -3.268342 h 0.92271 v 0.332591 q 0.24923,-0.207869 0.59922,-0.307007 0.34999,-0.102336 0.80074,-0.102336 0.98633,0 1.46359,0.361373 0.47726,0.358174 0.47726,1.103304 v 1.880417 h -0.9227 v -1.976356 q 0,-0.41254 -0.30757,-0.633201 -0.30226,-0.223859 -0.85907,-0.223859 -0.62043,0 -0.93861,0.214265 -0.31286,0.211067 -0.31286,0.630003 v 1.989148 z"
         style="font-weight:normal;font-size:8.23615px;font-family:Overpass;-inkscape-font-specification:Overpass;stroke:#ffffff;stroke-width:0.25738"
         id="path1193" />
      <path
         d="m 357.64977,59.099096 -0.44545,-0.434926 c 0.4808,-0.01705 0.87321,-0.05649 1.17724,-0.118326 0.30757,-0.06183 0.53383,-0.149238 0.67878,-0.262235 0.14848,-0.112995 0.22272,-0.254773 0.22272,-0.425332 v -0.441321 c -0.32525,0.264367 -0.79191,0.39655 -1.39997,0.39655 -0.44544,0 -0.83432,-0.07142 -1.16663,-0.214265 -0.33231,-0.142843 -0.59039,-0.342185 -0.77422,-0.598024 -0.18383,-0.257971 -0.27575,-0.558581 -0.27575,-0.901831 0,-0.347515 0.0919,-0.649191 0.27575,-0.90503 0.18737,-0.255839 0.44898,-0.453048 0.78482,-0.591628 0.33585,-0.140711 0.7318,-0.211067 1.18785,-0.211067 0.27221,0 0.52675,0.03091 0.76361,0.09274 0.2404,0.05969 0.44191,0.143907 0.60454,0.252641 v -0.268631 h 0.92269 v 3.178797 c 0,0.232387 -0.0513,0.435993 -0.15377,0.610816 -0.10253,0.176955 -0.25985,0.325129 -0.47196,0.44452 -0.21212,0.119391 -0.47903,0.211067 -0.80074,0.275027 -0.31817,0.06609 -0.69468,0.106601 -1.12951,0.121523 z m 0.42422,-1.803664 c 0.23333,0 0.45959,-0.04264 0.67878,-0.127919 0.22272,-0.08528 0.39948,-0.196144 0.53029,-0.332591 v -1.496657 c -0.12021,-0.125787 -0.29697,-0.229189 -0.53029,-0.310204 -0.2298,-0.08315 -0.45606,-0.124722 -0.67878,-0.124722 -0.47726,0 -0.84316,0.102335 -1.09769,0.307006 -0.251,0.204672 -0.3765,0.501019 -0.3765,0.889041 0,0.243047 0.0601,0.454114 0.18029,0.633201 0.12374,0.179087 0.2952,0.317666 0.51439,0.415738 0.22272,0.09807 0.48256,0.147107 0.77951,0.147107 z"
         style="font-weight:normal;font-size:8.23615px;font-family:Overpass;-inkscape-font-specification:Overpass;stroke:#ffffff;stroke-width:0.25738"
         id="path1195"
         sodipodi:nodetypes="ccccscsscsccsccccscscscsccccscsccs" />
    </g>
    <g
       transform="matrix(0.37462349,0,0,0.37462349,-11.736284,121.98647)"
       id="g971-5-6-4-6"
       inkscape:export-xdpi="149.42447"
       inkscape:export-ydpi="149.42447"
       inkscape:export-filename="skalisty-logo.svg">
      <path
         style="opacity:1;fill:#000000;fill-opacity:1;stroke:none;stroke-width:7.308;stroke-miterlimit:4;stroke-dasharray:none;stroke-opacity:1"
         d="m 93.009662,-73.459543 c -0.38878,1.080295 -1.67364,1.973217 -4.0187,2.346139 -2.44149,0.388251 -5.16706,3.376364 -5.16812,0.627234 -10e-4,-2.814611 3.33302,-3.901693 5.06788,-4.283842 1.82625,-0.402279 4.45505,0.376585 4.11894,1.310469 z"
         id="path829-2-0-5-3-1"
         inkscape:connector-curvature="0"
         sodipodi:nodetypes="sssss" />
      <path
         style="opacity:1;fill:#000000;fill-opacity:1;stroke:none;stroke-width:8.56197;stroke-miterlimit:4;stroke-dasharray:none;stroke-opacity:1"
         d="m 96.438092,-71.154141 c 0.49146,1.368939 -2.65489,3.462184 -5.4722,5.646447 -3.47905,2.697317 -5.57376,2.74638 -6.87105,0.572695 -1.8748,-3.141354 1.01377,-4.264657 5.09132,-5.530062 4.01724,-1.246693 6.76047,-2.05802 7.25193,-0.68908 z"
         id="path832-1-4-0-4-87"
         inkscape:connector-curvature="0"
         sodipodi:nodetypes="sssss" />
      <path
         style="opacity:1;fill:#000000;fill-opacity:1;stroke:none;stroke-width:10.3106;stroke-miterlimit:4;stroke-dasharray:none;stroke-opacity:1"
         d="m 100.04044,-65.290879 c 0.10898,1.449952 -1.207018,1.218692 -3.226888,0.719439 -1.62295,-0.503261 -3.25127,-0.723245 -3.03646,-1.777438 0.27373,-1.343428 2.39913,-3.222869 3.69242,-3.121099 1.70036,4e-6 2.47501,2.903047 2.570928,4.179098 z"
         id="path835-9-3-5-2-9"
         inkscape:connector-curvature="0"
         sodipodi:nodetypes="scscs" />
      <path
         style="opacity:1;fill:#000000;fill-opacity:1;stroke:none;stroke-width:9.43601;stroke-miterlimit:4;stroke-dasharray:none;stroke-opacity:1"
         d="m 100.27136,-57.694693 c -0.759248,1.256013 -2.054348,1.408187 -6.295958,-2.233225 -2.23605,-1.919645 -4.10974,-2.937036 -3.72353,-4.327692 0.35102,-1.264056 3.51732,-0.789737 6.40063,0.261021 2.99572,1.091725 5.702768,2.852511 3.618858,6.299896 z"
         id="path838-3-5-7-9-2"
         inkscape:connector-curvature="0"
         sodipodi:nodetypes="sssss" />
      <path
         style="opacity:1;fill:#000000;fill-opacity:1;stroke:none;stroke-width:8.70027;stroke-miterlimit:4;stroke-dasharray:none;stroke-opacity:1"
         d="m 84.504972,-63.417131 c 0.12967,0.732323 0.81012,0.726164 -2.16923,1.513046 -2.60675,0.688472 -2.5564,0.535401 -2.7286,-0.869605 -0.1846,-1.506568 0.95986,-1.591717 2.18421,-1.872145 1.80538,-0.413509 2.58396,0.496382 2.71362,1.228704 z"
         id="path841-4-2-2-3-02"
         inkscape:connector-curvature="0"
         sodipodi:nodetypes="sssss" />
      <path
         style="opacity:1;fill:#000000;fill-opacity:1;stroke:none;stroke-width:14.1255;stroke-miterlimit:4;stroke-dasharray:none;stroke-opacity:1"
         d="m 93.636932,-58.696474 c -0.0531,1.247246 -3.57409,0.625809 -7.87022,0.493759 -4.21238,-0.129477 -8.84369,1.525298 -8.81282,0.02992 0.0301,-1.459546 6.92115,-4.30158 10.81778,-4.548561 2.27109,-0.143949 5.93711,2.336558 5.86526,4.024878 z"
         id="path844-0-4-1-7-3"
         inkscape:connector-curvature="0"
         sodipodi:nodetypes="sssss" />
      <path
         style="opacity:1;fill:#ef161e;fill-opacity:0.866667;stroke:none;stroke-width:8.95972;stroke-miterlimit:4;stroke-dasharray:none;stroke-opacity:1"
         d="m 107.59749,-52.5393 c -0.0892,1.307224 -5.10924,1.096827 -10.199218,0.791512 -5.56356,-0.333722 -10.20407,0.87849 -9.61172,-3.95683 0.21757,-1.776421 4.29125,-2.280387 10.85063,-0.592921 5.168008,1.329526 9.047528,2.479849 8.960308,3.758239 z"
         id="path847-6-0-2-0-7"
         inkscape:connector-curvature="0"
         sodipodi:nodetypes="sssss" />
      <path
         style="opacity:1;fill:#000000;fill-opacity:1;stroke:none;stroke-width:7.80233;stroke-miterlimit:4;stroke-dasharray:none;stroke-opacity:1"
         d="m 86.716302,-51.997381 c -0.15999,0.380929 -0.47496,0.211075 -4.92669,1.102511 -3.08519,0.617792 -4.56142,2.874316 -5.21906,1.907937 -3.71579,-5.460209 3.39048,-8.551297 6.95389,-8.617143 2.05099,-0.0379 4.99061,1.323826 3.19186,5.606695 z"
         id="path850-6-7-9-7-5"
         inkscape:connector-curvature="0"
         sodipodi:nodetypes="sssss" />
      <path
         style="opacity:1;fill:#000000;fill-opacity:1;stroke:none;stroke-width:7.308;stroke-miterlimit:4;stroke-dasharray:none;stroke-opacity:1"
         d="m 93.579472,-48.15913 c -0.23082,2.348609 -4.59812,1.741387 -9.19231,1.741387 -4.59419,0 -8.44414,1.183849 -9.75155,0.355719 -0.84872,-0.537593 5.40656,-5.184666 14.67974,-4.701012 4.16297,0.217124 4.33232,1.910077 4.26412,2.603906 z"
         id="path853-9-5-2-8-9"
         inkscape:connector-curvature="0"
         sodipodi:nodetypes="sssss" />
      <path
         style="opacity:1;fill:#000000;fill-opacity:1;stroke:none;stroke-width:7.308;stroke-miterlimit:4;stroke-dasharray:none;stroke-opacity:1"
         d="m 107.2917,-47.474698 c 0.002,1.349211 -5.07845,0.336542 -7.16029,0.198438 -4.271838,-0.283385 -6.511028,-1.974254 -6.564958,-3.059245 -0.0573,-1.152507 4.68975,-0.695061 7.507548,-0.363802 2.75739,0.324159 6.21362,0.53279 6.2177,3.224609 z"
         id="path856-9-4-0-8-2"
         inkscape:connector-curvature="0"
         sodipodi:nodetypes="sssss" />
      <path
         style="opacity:1;fill:#000000;fill-opacity:1;stroke:none;stroke-width:9.62159;stroke-miterlimit:4;stroke-dasharray:none;stroke-opacity:1"
         d="m 90.752722,-43.42789 c 0.52823,1.935136 2.63369,2.278208 -9.11711,2.404726 -9.08012,0.515094 -10.31483,2.857119 -10.1357,-0.577096 0.14916,-2.859833 6.06755,-2.975586 11.39469,-4.046886 6.13592,-0.707854 7.3299,0.284117 7.85812,2.219256 z"
         id="path859-6-5-7-8-2"
         inkscape:connector-curvature="0"
         sodipodi:nodetypes="zcscz" />
      <path
         style="opacity:1;fill:#000000;fill-opacity:1;stroke:none;stroke-width:7.308;stroke-miterlimit:4;stroke-dasharray:none;stroke-opacity:1"
         d="m 111.78537,-41.985607 c 0.47295,1.410854 -1.04747,0.382286 -10.79989,0.405403 -3.282718,0.0078 -5.092768,0.240307 -9.120558,0.06845 0.0296,-6.956547 3.1358,-6.804107 8.317828,-4.830172 5.07472,1.933056 10.58517,0.03514 11.60262,4.356325 0,2e-6 0,-3e-6 0,-3e-6 z"
         id="path862-7-1-6-4-8"
         inkscape:connector-curvature="0"
         sodipodi:nodetypes="cscssc" />
      <path
         transform="translate(-58.32092,-55.566235)"
         style="fill:#000000;fill-opacity:1;stroke:none;stroke-width:0.264583px;stroke-linecap:butt;stroke-linejoin:miter;stroke-opacity:1"
         d="m 100.67073,23.156251 c -0.0954,-0.352441 4.67149,-2.092854 12.6391,-3.917386 8.17485,-1.871986 18.94249,-3.596093 31.64258,-4.103479 24.94634,-0.99664 44.98855,3.428353 44.87,4.148915 -0.11856,0.720562 -20.12766,-2.488155 -44.76464,-1.507196 -12.63317,0.503009 -23.09752,1.902471 -31.38429,3.294267 -7.98437,1.341008 -12.90735,2.43732 -13.00275,2.084879 z"
         id="path865-2-4-0-9-9"
         inkscape:connector-curvature="0"
         inkscape:path-effect="#path-effect867-8-4-3-7-2"
         inkscape:original-d="M 100.67073,23.156251 C 134.46974,14.007122 163.2041,14.904806 189.8224,19.2843"
         sodipodi:nodetypes="cc"
         class="UnoptimicedTransforms" />
    </g>
    <g
       id="g1266"
       transform="matrix(0.4003679,0,0,0.4003679,57.338993,134.17472)">
      <path
         d="m -52.685574,-95.660886 h -2.060784 z m -3.973191,0.8408 h -3.247796 l -1.698086,1.450792 v 5.522901 l 0.609992,0.609992 0.593506,-0.609992 z m 5.176689,0.362698 -3.742384,-0.362698 -1.797003,2.885098 h 0.956203 l 1.318902,0.362698 v 1.088094 h 4.105082 v -2.885098 z m -6.017489,4.33589 v -0.8408 l -2.65429,4.566697 0.247294,0.247294 5.160203,0.593506 v 1.81349 l -0.478102,0.478102 h -1.797003 l -0.478102,-0.478102 v -0.97269 h -3.49509 l -0.609992,0.609992 v 2.885098 l 1.698086,1.797004 h 6.973693 l 2.291592,-2.406996 v -5.160204 l -2.291592,-2.538886 h -4.088595 z"
         style="font-style:normal;font-variant:normal;font-weight:normal;font-stretch:normal;font-size:16.4863px;line-height:1.25;font-family:Brad;-inkscape-font-specification:Brad;letter-spacing:0px;word-spacing:0px;fill:#000000;fill-opacity:1;stroke:none;stroke-width:0.412157"
         id="path1014-5-0-5-1"
         inkscape:connector-curvature="0"
         transform="translate(3.3561885,-0.63241983)" />
      <path
         d="m -44.937356,-99.788046 h -4.187513 l 0.247294,5.14996 h 2.456454 l 1.483765,-0.824886 z m 7.369364,0 h -5.0448 l -1.219984,3.656249 v 1.159298 h 0.609992 l 3.824816,-0.490473 0.609992,-0.668825 z m -2.456455,5.14996 h -0.247294 l -4.171027,0.84718 -4.682101,0.334413 v 5.974845 l 0.609992,0.847179 8.49043,4.815548 h 1.483765 l -2.588345,-5.99714 -0.362698,-1.984184 1.467278,-3.656248 z m -5.539388,10.812686 -3.561034,-1.64977 v 7.981323 h 4.187513 v -5.484373 z m 7.633145,4.325075 -5.539388,-3.143482 -0.362698,0.490473 2.093757,4.659487 h 0.609992 l 4.055623,-0.334412 v -0.334413 z"
         style="font-style:normal;font-variant:normal;font-weight:normal;font-stretch:normal;font-size:16.4863px;line-height:1.25;font-family:Brad;-inkscape-font-specification:Brad;letter-spacing:0px;word-spacing:0px;fill:#ee161f;fill-opacity:0.866667;stroke:none;stroke-width:0.479289"
         id="path1016-90-9-0-2"
         inkscape:connector-curvature="0"
         transform="translate(3.3561885,-0.63241983)" />
      <path
         d="m -29.966791,-95.90818 h -2.670776 l -0.478102,3.396172 5.819654,2.060784 h 1.088094 v -0.609992 z m 2.670776,0 h -1.219984 l 1.698086,2.308078 z m 1.088094,6.660454 -6.907748,-2.291592 -0.609992,0.478102 -0.8408,5.57236 1.450792,1.698086 h 0.8408 l 7.51774,-0.230808 -0.609992,-3.165364 z m -3.511576,2.308078 v 0.609992 l -0.329726,0.247294 -0.164862,-0.857286 z m -2.308078,6.066949 -2.060784,-2.308079 -1.450792,0.609992 -0.494589,3.148879 h 3.758871 z m 7.270446,-2.308079 h -7.51774 l 0.609992,1.219985 h 0.8408 l 2.308078,0.230807 0.857286,2.308079 h 3.75887 v -1.088094 z"
         style="font-style:normal;font-variant:normal;font-weight:normal;font-stretch:normal;font-size:16.4863px;line-height:1.25;font-family:Brad;-inkscape-font-specification:Brad;letter-spacing:0px;word-spacing:0px;fill:#000000;fill-opacity:1;stroke:none;stroke-width:0.412157"
         id="path1018-74-4-9-93"
         inkscape:connector-curvature="0"
         transform="translate(3.3561885,-0.63241983)" />
      <path
         d="m -18.897029,-92.380118 -3.824815,-3.528062 0.247294,2.951043 h 0.379184 z m 0.609992,-3.528062 h -2.703748 l 2.34105,2.703749 0.362698,-0.362698 z m -0.857286,3.561035 h -3.330227 l -0.247294,12.348218 2.341051,0.329725 5.902085,0.247295 0.626479,-3.445631 h -3.824816 l -0.609992,-0.609993 v -0.626478 l -0.362698,-7.369364 z"
         style="font-style:normal;font-variant:normal;font-weight:normal;font-stretch:normal;font-size:16.4863px;line-height:1.25;font-family:Brad;-inkscape-font-specification:Brad;letter-spacing:0px;word-spacing:0px;fill:#000000;fill-opacity:1;stroke:none;stroke-width:0.412157"
         id="path1020-6-3-3-1"
         inkscape:connector-curvature="0"
         transform="translate(3.3561885,-0.63241983)" />
      <path
         d="m -11.130708,-95.90818 h -2.044298 v 3.725897 l 0.247294,-0.230807 z m 2.2915915,0 h -1.2034975 l -2.885098,5.176689 v 1.434306 l 4.0885955,-0.230808 z m -0.362698,7.220987 h -3.7258975 l -0.247294,2.65429 1.6816,0.230808 v 0.362698 l -1.6816,0.478102 v 3.49509 l 2.885097,1.203498 -0.362698,0.247294 -2.522399,-0.247294 v 0.8408 h 0.247294 l 4.0885955,-0.247295 z"
         style="font-style:normal;font-variant:normal;font-weight:normal;font-stretch:normal;font-size:16.4863px;line-height:1.25;font-family:Brad;-inkscape-font-specification:Brad;letter-spacing:0px;word-spacing:0px;fill:#000000;fill-opacity:1;stroke:none;stroke-width:0.412157"
         id="path1022-4-4-5-9"
         inkscape:connector-curvature="0"
         transform="translate(3.3561885,-0.63241983)" />
      <path
         d="M 0.75074393,-95.660886 H -1.3100402 Z m -3.97319173,0.8408 h -3.2477957 l -1.6980861,1.450792 v 5.522901 l 0.6099921,0.609992 0.5935058,-0.609992 z m 5.1766897,0.362698 -3.742384,-0.362698 -1.7970037,2.885098 h 0.9562038 l 1.3189018,0.362698 v 1.088094 h 4.105082 v -2.885098 z m -6.0174896,4.33589 v -0.8408 l -2.6542899,4.566697 0.2472941,0.247294 5.1602033,0.593506 v 1.81349 l -0.4781019,0.478102 h -1.7970037 l -0.4781019,-0.478102 v -0.97269 h -3.4950898 l -0.6099921,0.609992 v 2.885098 l 1.6980861,1.797004 h 6.97369334 l 2.29159196,-2.406996 v -5.160204 L 0.50344984,-89.527993 H -3.5851458 Z"
         style="font-style:normal;font-variant:normal;font-weight:normal;font-stretch:normal;font-size:16.4863px;line-height:1.25;font-family:Brad;-inkscape-font-specification:Brad;letter-spacing:0px;word-spacing:0px;fill:#000000;fill-opacity:1;stroke:none;stroke-width:0.412157"
         id="path1024-6-4-6-4"
         inkscape:connector-curvature="0"
         transform="translate(3.3561885,-0.63241983)" />
      <path
         d="M 8.7620433,-95.825749 H 3.5853537 v 0.362698 l 4.9293955,0.478102 -4.9293955,0.609992 v 2.275106 h 2.6542899 l 0.4781019,0.609992 v 11.556877 l 0.362698,-0.247294 1.6815998,-12.397677 z m 5.1766897,0 H 9.9655412 l -2.2915919,15.892767 3.1323917,0.593506 v -12.150383 l 0.609992,-0.609992 h 2.5224 z"
         style="font-style:normal;font-variant:normal;font-weight:normal;font-stretch:normal;font-size:16.4863px;line-height:1.25;font-family:Brad;-inkscape-font-specification:Brad;letter-spacing:0px;word-spacing:0px;fill:#000000;fill-opacity:1;stroke:none;stroke-width:0.412157"
         id="path1026-4-9-7-78"
         inkscape:connector-curvature="0"
         transform="translate(3.3561885,-0.63241983)" />
      <path
         d="m 18.654836,-95.825749 h -4.368862 l 0.609992,0.8408 h 3.148878 l 0.609992,-0.593506 z m 8.49043,0 h -4.978854 v 0.8408 h 4.368862 l 0.609992,-0.593506 z m -9.33123,1.450792 H 15.14326 l -0.247294,0.247294 1.088094,2.308078 0.362698,0.362698 0.609992,-0.609992 z m 8.111246,0 h -4.121568 l -1.088094,1.94538 -0.8408,-0.857286 -0.362698,-0.8408 H 18.90213 l -1.088094,2.060784 v 0.8408 l 6.907748,-0.230808 1.203498,-1.829976 z m -2.060784,3.75887 h -6.660454 l -0.247294,1.698086 6.297756,0.362698 0.609992,-0.97269 z m -1.450792,3.148878 -4.59967,-0.593505 2.291592,4.121568 2.060784,2.291592 0.247294,-4.962368 z m -1.450792,6.429647 -2.91807,-4.368862 0.362698,5.226148 h 0.494588 l 2.423482,-0.609992 z m -0.247294,1.219984 h -0.609992 l -2.060784,0.478102 h 1.219984 l 1.698086,-0.247294 z"
         style="font-style:normal;font-variant:normal;font-weight:normal;font-stretch:normal;font-size:16.4863px;line-height:1.25;font-family:Brad;-inkscape-font-specification:Brad;letter-spacing:0px;word-spacing:0px;fill:#000000;fill-opacity:1;stroke:none;stroke-width:0.412157"
         id="path1028-0-7-8-4"
         inkscape:connector-curvature="0"
         transform="translate(3.3561885,-0.63241983)" />
      <path
         d="m 43.496816,-95.660886 -2.885098,-0.247294 -1.6816,0.593506 0.230808,2.901584 h 0.609992 l 4.088596,-2.901584 z m -5.423984,0 h -2.044298 l 2.044298,3.247796 h 0.609992 v -1.203498 z m -1.797004,2.406996 -1.6816,-2.060784 -0.247294,1.450792 0.8408,0.609992 z m 8.67178,-0.97269 h -1.088094 l -2.885098,2.406995 0.593506,0.478102 3.725897,0.97269 v -0.97269 z m -7.715576,2.406995 -2.637804,-0.956203 v 3.478603 l 2.885098,-1.6816 v -0.593505 z m 5.17669,1.6816 -1.203498,-0.593506 -0.230808,2.885098 h 0.593506 l 1.450792,-0.247294 v -0.8408 z m -4.088596,0 H 37.72662 l -3.379686,2.291592 v 1.81349 h 1.088094 l 3.247796,-1.203498 -0.362698,-0.247294 z m 6.380187,0.609992 -0.840799,-0.362698 -0.362698,0.593506 0.956203,0.857286 0.8408,-0.857286 -0.346211,-0.230808 z m 0.593506,1.6816 h -0.8408 l -0.362698,0.609992 0.609992,1.203498 h 0.247295 l 0.346211,-0.362698 z m -2.044298,0.609992 h -1.203497 l -0.230808,0.593506 1.203498,2.044298 h 0.478102 l 0.362698,-0.362698 v -1.071608 z m -2.885097,0.593506 h -0.593506 v 2.885098 l 2.637804,-0.362698 z m -1.6816,0.609992 H 37.72662 l -3.379686,1.071608 v 4.945882 l 3.973192,0.593506 0.362698,-4.088596 z"
         style="font-style:normal;font-variant:normal;font-weight:normal;font-stretch:normal;font-size:16.4863px;line-height:1.25;font-family:Brad;-inkscape-font-specification:Brad;letter-spacing:0px;word-spacing:0px;fill:#000000;fill-opacity:1;stroke:none;stroke-width:0.412157"
         id="path1032-0-8-8-50"
         inkscape:connector-curvature="0"
         transform="translate(3.3561885,-0.63241983)" />
      <path
         d="m 49.752843,-92.380118 -3.824815,-3.528062 0.247294,2.951043 h 0.379184 z m 0.609992,-3.528062 h -2.703749 l 2.341051,2.703749 0.362698,-0.362698 z m -0.857286,3.561035 h -3.330227 l -0.247294,12.348218 2.341051,0.329725 5.902085,0.247295 0.626479,-3.445631 h -3.824816 l -0.609992,-0.609993 v -0.626478 l -0.362698,-7.369364 z"
         style="font-style:normal;font-variant:normal;font-weight:normal;font-stretch:normal;font-size:16.4863px;line-height:1.25;font-family:Brad;-inkscape-font-specification:Brad;letter-spacing:0px;word-spacing:0px;fill:#000000;fill-opacity:1;stroke:none;stroke-width:0.412157"
         id="path1034-1-6-6-3"
         inkscape:connector-curvature="0"
         transform="translate(3.3561885,-0.63241983)" />
      <path
         d="m 33.543348,-82.59148 -0.04857,0.254987 -0.449262,0.388551 -0.121423,0.230702 -0.182133,0.242845 -0.09714,0.09714 -0.169991,0.254986 -0.473547,0.352125 -0.279271,0.02428 -0.339983,-0.04857 -0.206418,-0.182134 -0.121422,-0.339982 -0.07285,-0.157849 -0.303556,-0.242845 -0.07285,-0.157849 v -0.169991 l -0.07285,-0.194275 -0.02428,-0.254987 0.303556,-0.267129 0.570684,-0.32784 0.522116,-0.242845 h 0.667823 l 0.291413,0.121422 0.10928,0.169991 0.267129,0.04857 0.254987,0.157849 z"
         style="font-style:normal;font-variant:normal;font-weight:normal;font-stretch:normal;font-size:24.8673px;line-height:1.25;font-family:Chiller;-inkscape-font-specification:Chiller;letter-spacing:0px;word-spacing:0px;fill:#000000;fill-opacity:1;stroke:none;stroke-width:0.621682"
         id="path1052-0-9-1-6"
         inkscape:connector-curvature="0"
         sodipodi:nodetypes="ccccccccccccccccccccccccccc" />
    </g>
  </g>
</svg>
