<?xml version="1.0" encoding="UTF-8" standalone="no"?><svg xmlns:inkscape="http://www.inkscape.org/namespaces/inkscape" xmlns:sodipodi="http://sodipodi.sourceforge.net/DTD/sodipodi-0.dtd" xmlns="http://www.w3.org/2000/svg" xmlns:svg="http://www.w3.org/2000/svg" xmlns:rdf="http://www.w3.org/1999/02/22-rdf-syntax-ns#" xmlns:cc="http://creativecommons.org/ns#" xmlns:dc="http://purl.org/dc/elements/1.1/" width="78.64743mm" height="15.934675mm" viewBox="0 0 78.64743 15.934675" version="1.1" id="svg8"><defs id="defs2"></defs><metadata id="metadata5"></metadata><g id="layer1" transform="translate(-5.4430054,-47.779957)"><g id="g1467-7-7" transform="matrix(0.39744118,0,0,0.39744118,-62.589826,83.672393)"><g id="g989"><g transform="matrix(0.94258849,0,0,0.94258849,131.25999,-19.729191)" id="g971-5-6-4"><path style="opacity:1;fill:#000000;fill-opacity:1;stroke:none;stroke-width:7.308;stroke-miterlimit:4;stroke-dasharray:none;stroke-opacity:1" d="m 93.009662,-73.459543 c -0.38878,1.080295 -1.67364,1.973217 -4.0187,2.346139 -2.44149,0.388251 -5.16706,3.376364 -5.16812,0.627234 -10e-4,-2.814611 3.33302,-3.901693 5.06788,-4.283842 1.82625,-0.402279 4.45505,0.376585 4.11894,1.310469 z" id="path829-2-0-5-3"/><path style="opacity:1;fill:#000000;fill-opacity:1;stroke:none;stroke-width:8.56197;stroke-miterlimit:4;stroke-dasharray:none;stroke-opacity:1" d="m 96.438092,-71.154141 c 0.49146,1.368939 -2.65489,3.462184 -5.4722,5.646447 -3.47905,2.697317 -5.57376,2.74638 -6.87105,0.572695 -1.8748,-3.141354 1.01377,-4.264657 5.09132,-5.530062 4.01724,-1.246693 6.76047,-2.05802 7.25193,-0.68908 z" id="path832-1-4-0-4"/><path style="opacity:1;fill:#000000;fill-opacity:1;stroke:none;stroke-width:10.3106;stroke-miterlimit:4;stroke-dasharray:none;stroke-opacity:1" d="m 100.04044,-65.290879 c 0.10898,1.449952 -1.207018,1.218692 -3.226888,0.719439 -1.62295,-0.503261 -3.25127,-0.723245 -3.03646,-1.777438 0.27373,-1.343428 2.39913,-3.222869 3.69242,-3.121099 1.70036,4e-6 2.47501,2.903047 2.570928,4.179098 z" id="path835-9-3-5-2"/><path style="opacity:1;fill:#000000;fill-opacity:1;stroke:none;stroke-width:9.43601;stroke-miterlimit:4;stroke-dasharray:none;stroke-opacity:1" d="m 100.27136,-57.694693 c -0.759248,1.256013 -2.054348,1.408187 -6.295958,-2.233225 -2.23605,-1.919645 -4.10974,-2.937036 -3.72353,-4.327692 0.35102,-1.264056 3.51732,-0.789737 6.40063,0.261021 2.99572,1.091725 5.702768,2.852511 3.618858,6.299896 z" id="path838-3-5-7-9"/><path style="opacity:1;fill:#000000;fill-opacity:1;stroke:none;stroke-width:8.70027;stroke-miterlimit:4;stroke-dasharray:none;stroke-opacity:1" d="m 84.504972,-63.417131 c 0.12967,0.732323 0.81012,0.726164 -2.16923,1.513046 -2.60675,0.688472 -2.5564,0.535401 -2.7286,-0.869605 -0.1846,-1.506568 0.95986,-1.591717 2.18421,-1.872145 1.80538,-0.413509 2.58396,0.496382 2.71362,1.228704 z" id="path841-4-2-2-3"/><path style="opacity:1;fill:#000000;fill-opacity:1;stroke:none;stroke-width:14.1255;stroke-miterlimit:4;stroke-dasharray:none;stroke-opacity:1" d="m 93.636932,-58.696474 c -0.0531,1.247246 -3.57409,0.625809 -7.87022,0.493759 -4.21238,-0.129477 -8.84369,1.525298 -8.81282,0.02992 0.0301,-1.459546 6.92115,-4.30158 10.81778,-4.548561 2.27109,-0.143949 5.93711,2.336558 5.86526,4.024878 z" id="path844-0-4-1-7"/><path style="opacity:1;fill:#ef161e;fill-opacity:0.866667;stroke:none;stroke-width:8.95972;stroke-miterlimit:4;stroke-dasharray:none;stroke-opacity:1" d="m 107.59749,-52.5393 c -0.0892,1.307224 -5.10924,1.096827 -10.199218,0.791512 -5.56356,-0.333722 -10.20407,0.87849 -9.61172,-3.95683 0.21757,-1.776421 4.29125,-2.280387 10.85063,-0.592921 5.168008,1.329526 9.047528,2.479849 8.960308,3.758239 z" id="path847-6-0-2-0"/><path style="opacity:1;fill:#000000;fill-opacity:1;stroke:none;stroke-width:7.80233;stroke-miterlimit:4;stroke-dasharray:none;stroke-opacity:1" d="m 86.716302,-51.997381 c -0.15999,0.380929 -0.47496,0.211075 -4.92669,1.102511 -3.08519,0.617792 -4.56142,2.874316 -5.21906,1.907937 -3.71579,-5.460209 3.39048,-8.551297 6.95389,-8.617143 2.05099,-0.0379 4.99061,1.323826 3.19186,5.606695 z" id="path850-6-7-9-7"/><path style="opacity:1;fill:#000000;fill-opacity:1;stroke:none;stroke-width:7.308;stroke-miterlimit:4;stroke-dasharray:none;stroke-opacity:1" d="m 93.579472,-48.15913 c -0.23082,2.348609 -4.59812,1.741387 -9.19231,1.741387 -4.59419,0 -8.44414,1.183849 -9.75155,0.355719 -0.84872,-0.537593 5.40656,-5.184666 14.67974,-4.701012 4.16297,0.217124 4.33232,1.910077 4.26412,2.603906 z" id="path853-9-5-2-8"/><path style="opacity:1;fill:#000000;fill-opacity:1;stroke:none;stroke-width:7.308;stroke-miterlimit:4;stroke-dasharray:none;stroke-opacity:1" d="m 107.2917,-47.474698 c 0.002,1.349211 -5.07845,0.336542 -7.16029,0.198438 -4.271838,-0.283385 -6.511028,-1.974254 -6.564958,-3.059245 -0.0573,-1.152507 4.68975,-0.695061 7.507548,-0.363802 2.75739,0.324159 6.21362,0.53279 6.2177,3.224609 z" id="path856-9-4-0-8"/><path style="opacity:1;fill:#000000;fill-opacity:1;stroke:none;stroke-width:9.62159;stroke-miterlimit:4;stroke-dasharray:none;stroke-opacity:1" d="m 90.752722,-43.42789 c 0.52823,1.935136 2.63369,2.278208 -9.11711,2.404726 -9.08012,0.515094 -10.31483,2.857119 -10.1357,-0.577096 0.14916,-2.859833 6.06755,-2.975586 11.39469,-4.046886 6.13592,-0.707854 7.3299,0.284117 7.85812,2.219256 z" id="path859-6-5-7-8"/><path style="opacity:1;fill:#000000;fill-opacity:1;stroke:none;stroke-width:7.308;stroke-miterlimit:4;stroke-dasharray:none;stroke-opacity:1" d="m 111.78537,-41.985607 c 0.47295,1.410854 -1.04747,0.382286 -10.79989,0.405403 -3.282718,0.0078 -5.092768,0.240307 -9.120558,0.06845 0.0296,-6.956547 3.1358,-6.804107 8.317828,-4.830172 5.07472,1.933056 10.58517,0.03514 11.60262,4.356325 0,2e-6 0,-3e-6 0,-3e-6 z" id="path862-7-1-6-4"/><path transform="translate(-58.32092,-55.566235)" style="fill:#000000;fill-opacity:1;stroke:none;stroke-width:0.264583px;stroke-linecap:butt;stroke-linejoin:miter;stroke-opacity:1" d="m 100.67073,23.156251 c -0.0954,-0.352441 4.67149,-2.092854 12.6391,-3.917386 8.17485,-1.871986 18.94249,-3.596093 31.64258,-4.103479 24.94634,-0.99664 44.98855,3.428353 44.87,4.148915 -0.11856,0.720562 -20.12766,-2.488155 -44.76464,-1.507196 -12.63317,0.503009 -23.09752,1.902471 -31.38429,3.294267 -7.98437,1.341008 -12.90735,2.43732 -13.00275,2.084879 z" id="path865-2-4-0-9" class="UnoptimicedTransforms"/></g><g id="g1109-1-2-0" transform="matrix(1.0073639,0,0,1.0073639,305.05999,10.9376)"><g id="g1094-9-3-0"><g id="g1077-5-4-1" transform="translate(3.3561892,-0.63241873)"><path d="m -52.685574,-95.660886 h -2.060784 z m -3.973191,0.8408 h -3.247796 l -1.698086,1.450792 v 5.522901 l 0.609992,0.609992 0.593506,-0.609992 z m 5.176689,0.362698 -3.742384,-0.362698 -1.797003,2.885098 h 0.956203 l 1.318902,0.362698 v 1.088094 h 4.105082 v -2.885098 z m -6.017489,4.33589 v -0.8408 l -2.65429,4.566697 0.247294,0.247294 5.160203,0.593506 v 1.81349 l -0.478102,0.478102 h -1.797003 l -0.478102,-0.478102 v -0.97269 h -3.49509 l -0.609992,0.609992 v 2.885098 l 1.698086,1.797004 h 6.973693 l 2.291592,-2.406996 v -5.160204 l -2.291592,-2.538886 h -4.088595 z" style="font-style:normal;font-variant:normal;font-weight:normal;font-stretch:normal;font-size:16.4863px;line-height:1.25;font-family:Brad;-inkscape-font-specification:Brad;letter-spacing:0px;word-spacing:0px;fill:#000000;fill-opacity:1;stroke:none;stroke-width:0.412157" id="path1014-5-0-5"/><path d="m -44.937356,-99.788046 h -4.187513 l 0.247294,5.14996 h 2.456454 l 1.483765,-0.824886 z m 7.369364,0 h -5.0448 l -1.219984,3.656249 v 1.159298 h 0.609992 l 3.824816,-0.490473 0.609992,-0.668825 z m -2.456455,5.14996 h -0.247294 l -4.171027,0.84718 -4.682101,0.334413 v 5.974845 l 0.609992,0.847179 8.49043,4.815548 h 1.483765 l -2.588345,-5.99714 -0.362698,-1.984184 1.467278,-3.656248 z m -5.539388,10.812686 -3.561034,-1.64977 v 7.981323 h 4.187513 v -5.484373 z m 7.633145,4.325075 -5.539388,-3.143482 -0.362698,0.490473 2.093757,4.659487 h 0.609992 l 4.055623,-0.334412 v -0.334413 z" style="font-style:normal;font-variant:normal;font-weight:normal;font-stretch:normal;font-size:16.4863px;line-height:1.25;font-family:Brad;-inkscape-font-specification:Brad;letter-spacing:0px;word-spacing:0px;fill:#ee161f;fill-opacity:0.866667;stroke:none;stroke-width:0.479289" id="path1016-90-9-0"/><path d="m -29.966791,-95.90818 h -2.670776 l -0.478102,3.396172 5.819654,2.060784 h 1.088094 v -0.609992 z m 2.670776,0 h -1.219984 l 1.698086,2.308078 z m 1.088094,6.660454 -6.907748,-2.291592 -0.609992,0.478102 -0.8408,5.57236 1.450792,1.698086 h 0.8408 l 7.51774,-0.230808 -0.609992,-3.165364 z m -3.511576,2.308078 v 0.609992 l -0.329726,0.247294 -0.164862,-0.857286 z m -2.308078,6.066949 -2.060784,-2.308079 -1.450792,0.609992 -0.494589,3.148879 h 3.758871 z m 7.270446,-2.308079 h -7.51774 l 0.609992,1.219985 h 0.8408 l 2.308078,0.230807 0.857286,2.308079 h 3.75887 v -1.088094 z" style="font-style:normal;font-variant:normal;font-weight:normal;font-stretch:normal;font-size:16.4863px;line-height:1.25;font-family:Brad;-inkscape-font-specification:Brad;letter-spacing:0px;word-spacing:0px;fill:#000000;fill-opacity:1;stroke:none;stroke-width:0.412157" id="path1018-74-4-9"/><path d="m -18.897029,-92.380118 -3.824815,-3.528062 0.247294,2.951043 h 0.379184 z m 0.609992,-3.528062 h -2.703748 l 2.34105,2.703749 0.362698,-0.362698 z m -0.857286,3.561035 h -3.330227 l -0.247294,12.348218 2.341051,0.329725 5.902085,0.247295 0.626479,-3.445631 h -3.824816 l -0.609992,-0.609993 v -0.626478 l -0.362698,-7.369364 z" style="font-style:normal;font-variant:normal;font-weight:normal;font-stretch:normal;font-size:16.4863px;line-height:1.25;font-family:Brad;-inkscape-font-specification:Brad;letter-spacing:0px;word-spacing:0px;fill:#000000;fill-opacity:1;stroke:none;stroke-width:0.412157" id="path1020-6-3-3"/><path d="m -11.130708,-95.90818 h -2.044298 v 3.725897 l 0.247294,-0.230807 z m 2.2915915,0 h -1.2034975 l -2.885098,5.176689 v 1.434306 l 4.0885955,-0.230808 z m -0.362698,7.220987 h -3.7258975 l -0.247294,2.65429 1.6816,0.230808 v 0.362698 l -1.6816,0.478102 v 3.49509 l 2.885097,1.203498 -0.362698,0.247294 -2.522399,-0.247294 v 0.8408 h 0.247294 l 4.0885955,-0.247295 z" style="font-style:normal;font-variant:normal;font-weight:normal;font-stretch:normal;font-size:16.4863px;line-height:1.25;font-family:Brad;-inkscape-font-specification:Brad;letter-spacing:0px;word-spacing:0px;fill:#000000;fill-opacity:1;stroke:none;stroke-width:0.412157" id="path1022-4-4-5"/><path d="M 0.75074393,-95.660886 H -1.3100402 Z m -3.97319173,0.8408 h -3.2477957 l -1.6980861,1.450792 v 5.522901 l 0.6099921,0.609992 0.5935058,-0.609992 z m 5.1766897,0.362698 -3.742384,-0.362698 -1.7970037,2.885098 h 0.9562038 l 1.3189018,0.362698 v 1.088094 h 4.105082 v -2.885098 z m -6.0174896,4.33589 v -0.8408 l -2.6542899,4.566697 0.2472941,0.247294 5.1602033,0.593506 v 1.81349 l -0.4781019,0.478102 h -1.7970037 l -0.4781019,-0.478102 v -0.97269 h -3.4950898 l -0.6099921,0.609992 v 2.885098 l 1.6980861,1.797004 h 6.97369334 l 2.29159196,-2.406996 v -5.160204 L 0.50344984,-89.527993 H -3.5851458 Z" style="font-style:normal;font-variant:normal;font-weight:normal;font-stretch:normal;font-size:16.4863px;line-height:1.25;font-family:Brad;-inkscape-font-specification:Brad;letter-spacing:0px;word-spacing:0px;fill:#000000;fill-opacity:1;stroke:none;stroke-width:0.412157" id="path1024-6-4-6"/><path d="M 8.7620433,-95.825749 H 3.5853537 v 0.362698 l 4.9293955,0.478102 -4.9293955,0.609992 v 2.275106 h 2.6542899 l 0.4781019,0.609992 v 11.556877 l 0.362698,-0.247294 1.6815998,-12.397677 z m 5.1766897,0 H 9.9655412 l -2.2915919,15.892767 3.1323917,0.593506 v -12.150383 l 0.609992,-0.609992 h 2.5224 z" style="font-style:normal;font-variant:normal;font-weight:normal;font-stretch:normal;font-size:16.4863px;line-height:1.25;font-family:Brad;-inkscape-font-specification:Brad;letter-spacing:0px;word-spacing:0px;fill:#000000;fill-opacity:1;stroke:none;stroke-width:0.412157" id="path1026-4-9-7"/><path d="m 18.654836,-95.825749 h -4.368862 l 0.609992,0.8408 h 3.148878 l 0.609992,-0.593506 z m 8.49043,0 h -4.978854 v 0.8408 h 4.368862 l 0.609992,-0.593506 z m -9.33123,1.450792 H 15.14326 l -0.247294,0.247294 1.088094,2.308078 0.362698,0.362698 0.609992,-0.609992 z m 8.111246,0 h -4.121568 l -1.088094,1.94538 -0.8408,-0.857286 -0.362698,-0.8408 H 18.90213 l -1.088094,2.060784 v 0.8408 l 6.907748,-0.230808 1.203498,-1.829976 z m -2.060784,3.75887 h -6.660454 l -0.247294,1.698086 6.297756,0.362698 0.609992,-0.97269 z m -1.450792,3.148878 -4.59967,-0.593505 2.291592,4.121568 2.060784,2.291592 0.247294,-4.962368 z m -1.450792,6.429647 -2.91807,-4.368862 0.362698,5.226148 h 0.494588 l 2.423482,-0.609992 z m -0.247294,1.219984 h -0.609992 l -2.060784,0.478102 h 1.219984 l 1.698086,-0.247294 z" style="font-style:normal;font-variant:normal;font-weight:normal;font-stretch:normal;font-size:16.4863px;line-height:1.25;font-family:Brad;-inkscape-font-specification:Brad;letter-spacing:0px;word-spacing:0px;fill:#000000;fill-opacity:1;stroke:none;stroke-width:0.412157" id="path1028-0-7-8"/><path d="m 43.496816,-95.660886 -2.885098,-0.247294 -1.6816,0.593506 0.230808,2.901584 h 0.609992 l 4.088596,-2.901584 z m -5.423984,0 h -2.044298 l 2.044298,3.247796 h 0.609992 v -1.203498 z m -1.797004,2.406996 -1.6816,-2.060784 -0.247294,1.450792 0.8408,0.609992 z m 8.67178,-0.97269 h -1.088094 l -2.885098,2.406995 0.593506,0.478102 3.725897,0.97269 v -0.97269 z m -7.715576,2.406995 -2.637804,-0.956203 v 3.478603 l 2.885098,-1.6816 v -0.593505 z m 5.17669,1.6816 -1.203498,-0.593506 -0.230808,2.885098 h 0.593506 l 1.450792,-0.247294 v -0.8408 z m -4.088596,0 H 37.72662 l -3.379686,2.291592 v 1.81349 h 1.088094 l 3.247796,-1.203498 -0.362698,-0.247294 z m 6.380187,0.609992 -0.840799,-0.362698 -0.362698,0.593506 0.956203,0.857286 0.8408,-0.857286 -0.346211,-0.230808 z m 0.593506,1.6816 h -0.8408 l -0.362698,0.609992 0.609992,1.203498 h 0.247295 l 0.346211,-0.362698 z m -2.044298,0.609992 h -1.203497 l -0.230808,0.593506 1.203498,2.044298 h 0.478102 l 0.362698,-0.362698 v -1.071608 z m -2.885097,0.593506 h -0.593506 v 2.885098 l 2.637804,-0.362698 z m -1.6816,0.609992 H 37.72662 l -3.379686,1.071608 v 4.945882 l 3.973192,0.593506 0.362698,-4.088596 z" style="font-style:normal;font-variant:normal;font-weight:normal;font-stretch:normal;font-size:16.4863px;line-height:1.25;font-family:Brad;-inkscape-font-specification:Brad;letter-spacing:0px;word-spacing:0px;fill:#000000;fill-opacity:1;stroke:none;stroke-width:0.412157" id="path1032-0-8-8"/><path d="m 49.752843,-92.380118 -3.824815,-3.528062 0.247294,2.951043 h 0.379184 z m 0.609992,-3.528062 h -2.703749 l 2.341051,2.703749 0.362698,-0.362698 z m -0.857286,3.561035 h -3.330227 l -0.247294,12.348218 2.341051,0.329725 5.902085,0.247295 0.626479,-3.445631 h -3.824816 l -0.609992,-0.609993 v -0.626478 l -0.362698,-7.369364 z" style="font-style:normal;font-variant:normal;font-weight:normal;font-stretch:normal;font-size:16.4863px;line-height:1.25;font-family:Brad;-inkscape-font-specification:Brad;letter-spacing:0px;word-spacing:0px;fill:#000000;fill-opacity:1;stroke:none;stroke-width:0.412157" id="path1034-1-6-6"/></g></g><path d="m 33.543348,-82.59148 -0.04857,0.254987 -0.449262,0.388551 -0.121423,0.230702 -0.182133,0.242845 -0.09714,0.09714 -0.169991,0.254986 -0.473547,0.352125 -0.279271,0.02428 -0.339983,-0.04857 -0.206418,-0.182134 -0.121422,-0.339982 -0.07285,-0.157849 -0.303556,-0.242845 -0.07285,-0.157849 v -0.169991 l -0.07285,-0.194275 -0.02428,-0.254987 0.303556,-0.267129 0.570684,-0.32784 0.522116,-0.242845 h 0.667823 l 0.291413,0.121422 0.10928,0.169991 0.267129,0.04857 0.254987,0.157849 z" style="font-style:normal;font-variant:normal;font-weight:normal;font-stretch:normal;font-size:24.8673px;line-height:1.25;font-family:Chiller;-inkscape-font-specification:Chiller;letter-spacing:0px;word-spacing:0px;fill:#000000;fill-opacity:1;stroke:none;stroke-width:0.621682" id="path1052-0-9-1"/></g><path id="path1059-6-0-2" d="M 245.92582,-66.193502 H 363.64207" style="font-style:normal;font-variant:normal;font-weight:normal;font-stretch:normal;font-size:24.8673px;line-height:1.25;font-family:Chiller;-inkscape-font-specification:Chiller;letter-spacing:0px;word-spacing:0px;fill:none;fill-opacity:1;stroke:#ef161e;stroke-width:0.578499;stroke-linecap:butt;stroke-linejoin:miter;stroke-miterlimit:4;stroke-dasharray:none;stroke-opacity:0.866667"/><text style="font-style:normal;font-variant:normal;font-weight:bold;font-stretch:normal;font-size:8.23615px;font-family:Overpass;-inkscape-font-specification:'Overpass Bold';fill:#000000;stroke:#ffffff;stroke-width:0.25738" x="190.64276" y="-75.194901" id="text773" transform="scale(1.2877091,0.7765729)"><tspan id="tspan771" style="font-style:normal;font-variant:normal;font-weight:normal;font-stretch:normal;font-family:Overpass;-inkscape-font-specification:Overpass;stroke-width:0.25738" x="190.64276" y="-75.194901">artificial rocks &amp; theming</tspan></text></g></g></g></svg>