<svg xmlns="http://www.w3.org/2000/svg" width="64" height="64" viewBox="0 0 64 64" fill="#186f65"
  class="flex-shrink-0 2xl:mb-8 1xl:mb-7 xl:mb-6 mb-[18px] h-auto 1xl:w-[64px] xl:w-[56px] lg:w-12 md:w-11 sm:w-10 w-12 fill-primary-900">
  <path fill-rule="evenodd" clip-rule="evenodd"
    d="M31.196 0.3508C30.8429 0.6986 30.84 0.72361 30.84 3.42943C30.84 6.13525 30.8429 6.16026 31.196 6.50806C31.4203 6.72925 31.7175 6.85886 32 6.85886C32.2825 6.85886 32.5797 6.72925 32.804 6.50806C33.1571 6.16026 33.16 6.13525 33.16 3.42943C33.16 0.72361 33.1571 0.6986 32.804 0.3508C32.5797 0.1296 32.2825 0 32 0C31.7175 0 31.4203 0.1296 31.196 0.3508ZM11.5438 8.4197C10.7997 9.153 10.9614 9.4817 13.1168 11.6149C14.1319 12.6196 15.1105 13.4788 15.2915 13.5244C16.078 13.7223 16.9246 12.8879 16.7238 12.1129C16.6776 11.9346 15.8057 10.9702 14.7862 9.9698C12.6215 7.8457 12.288 7.6864 11.5438 8.4197ZM51.2125 8.14C50.6879 8.3568 47.225 11.9336 47.225 12.2586C47.225 13.0604 47.9829 13.707 48.7085 13.5244C48.8895 13.4788 49.8681 12.6196 50.8832 11.6149C53.027 9.4931 53.1981 9.1509 52.4731 8.4364C52.0246 7.9944 51.7315 7.9256 51.2125 8.14ZM29.97 9.2343C25.2447 9.8272 21.2865 11.7001 18.0796 14.8604C15.2776 17.6217 13.4098 21.0787 12.6119 24.9802C12.254 26.7307 12.2641 30.4663 12.6315 32.2223C13.8021 37.8175 17.1672 42.5015 22.0478 45.3292L22.72 45.7187V51.6568C22.72 58.2617 22.7175 58.2424 23.6715 58.9602C24.1841 59.3459 24.3188 59.3751 25.7894 59.4203L27.36 59.4687V60.8182C27.36 62.417 27.5504 62.96 28.3116 63.5328L28.859 63.9446L31.804 63.9884C35.1239 64.0379 35.4629 63.9646 36.1769 63.0431C36.5353 62.5804 36.5716 62.4126 36.6162 61.0036L36.6649 59.468L38.2231 59.42C39.653 59.376 39.8232 59.3403 40.2927 58.987C41.2873 58.2389 41.28 58.2922 41.28 51.6632V45.7124L41.7317 45.4689C42.8026 44.8919 44.7146 43.4503 45.7827 42.4146C49.803 38.5161 51.9706 33.0856 51.6752 27.6523C51.4096 22.7696 49.3881 18.2749 45.9258 14.869C42.2361 11.2397 37.7914 9.3492 32.6525 9.2237C31.4562 9.1946 30.2491 9.1993 29.97 9.2343ZM29.2138 11.6531C26.6772 12.0423 23.7414 13.2702 21.629 14.8254C14.8382 19.8255 12.6753 28.8552 16.4859 36.2967C18.0638 39.378 20.961 42.2683 23.9835 43.7764C24.3994 43.9837 24.8071 44.2779 24.8898 44.4301C24.9724 44.5822 25.04 45.4504 25.04 46.3593V48.012H27.94H30.84V45.4019V42.7917L29.1821 41.1626C28.2703 40.2666 27.4835 39.3736 27.4338 39.1782C27.2294 38.3756 28.0505 37.5664 28.8355 37.7966C29.0208 37.8509 29.8086 38.5146 30.5862 39.2715L32 40.6476L33.4137 39.2715C34.1914 38.5146 34.9792 37.8509 35.1645 37.7966C35.9495 37.5664 36.7706 38.3756 36.5662 39.1782C36.5165 39.3736 35.7297 40.2666 34.8179 41.1626L33.16 42.7917V45.4019V48.012H36.06H38.96V46.3593C38.96 45.4504 39.0241 44.5887 39.1022 44.4447C39.1805 44.3005 39.7286 43.9208 40.3202 43.6009C44.1861 41.51 47.1798 37.9632 48.5194 33.8865C49.1577 31.9441 49.3275 30.8287 49.3275 28.5786C49.3275 27.3883 49.242 26.081 49.1264 25.5064C47.2647 16.2441 38.5962 10.2133 29.2138 11.6531ZM3.35598 27.7862C3.13152 28.0073 3 28.3002 3 28.5786C3 28.8569 3.13152 29.1499 3.35598 29.3709C3.70891 29.7189 3.73428 29.7217 6.48 29.7217C9.2257 29.7217 9.2511 29.7189 9.604 29.3709C9.8285 29.1499 9.96 28.8569 9.96 28.5786C9.96 28.3002 9.8285 28.0073 9.604 27.7862C9.2511 27.4383 9.2257 27.4354 6.48 27.4354C3.73428 27.4354 3.70891 27.4383 3.35598 27.7862ZM54.396 27.7862C54.1715 28.0073 54.04 28.3002 54.04 28.5786C54.04 28.8569 54.1715 29.1499 54.396 29.3709C54.7489 29.7189 54.7743 29.7217 57.52 29.7217C60.2657 29.7217 60.2911 29.7189 60.644 29.3709C60.8685 29.1499 61 28.8569 61 28.5786C61 28.3002 60.8685 28.0073 60.644 27.7862C60.2911 27.4383 60.2657 27.4354 57.52 27.4354C54.7743 27.4354 54.7489 27.4383 54.396 27.7862ZM14.9625 43.8535C14.7232 44.0022 13.7948 44.8539 12.8994 45.7463C10.9773 47.6619 10.8154 48.0196 11.5438 48.7375C12.2781 49.4611 12.6309 49.301 14.6464 47.3301C16.9339 45.0933 17.1105 44.7483 16.3512 44C15.857 43.513 15.5611 43.4817 14.9625 43.8535ZM47.6488 44C47.1737 44.4683 47.1323 44.7083 47.4303 45.2685C47.7144 45.8026 50.9938 48.9535 51.3914 49.0744C52.1121 49.2936 53.0205 48.3984 52.7981 47.6882C52.6754 47.2964 49.478 44.0646 48.936 43.7847C48.3676 43.491 48.124 43.5317 47.6488 44ZM25.04 51.4414V52.5846H32H38.96V51.4414V50.2983H32H25.04V51.4414ZM25.04 56.014V57.1572H32H38.96V56.014V54.8709H32H25.04V56.014ZM29.68 60.5866V61.7297H32H34.32V60.5866V59.4434H32H29.68V60.5866Z"
    />
  </svg>