<svg xmlns="http://www.w3.org/2000/svg" width="21" height="21" viewBox="0 0 21 21" fill="none">
<path d="M18.375 10.4999C18.3749 12.1629 17.8484 13.7832 16.8708 15.1286C15.8933 16.4739 14.5149 17.4753 12.9333 17.9892C11.3516 18.503 9.64792 18.503 8.06631 17.989C6.4847 17.4751 5.10639 16.4736 4.12892 15.1282C3.15144 13.7828 2.62499 12.1625 2.625 10.4995C2.62501 8.83644 3.15149 7.21612 4.12899 5.87071C5.10648 4.5253 6.4848 3.52388 8.06642 3.00996C9.64804 2.49605 11.3517 2.49603 12.9334 3.0099" stroke="white" stroke-width="2" stroke-linecap="round" stroke-linejoin="round"/>
<path d="M2.8929 12.5372C2.46256 10.9309 2.5518 9.22949 3.14783 7.67696C3.74387 6.12443 4.8161 4.80043 6.21085 3.89474C7.6056 2.98904 9.25126 2.54813 10.912 2.63521C12.5727 2.72228 14.1633 3.33287 15.4557 4.37946C16.748 5.42605 17.6759 6.85491 18.1063 8.46126C18.5368 10.0676 18.4476 11.769 17.8516 13.3215C17.2556 14.8741 16.1835 16.1981 14.7888 17.1039C13.394 18.0097 11.7484 18.4506 10.0877 18.3636" stroke="white" stroke-opacity="0.4" stroke-width="2" stroke-linecap="round" stroke-linejoin="round"/>
</svg>