<svg xmlns="http://www.w3.org/2000/svg" width="24" height="24" viewBox="0 0 24 24" fill="#186f65"
  class="">
  <g clip-path="url(#clip0_4043_4677)">
    <path
      d="M3.45985 15.1099C3.43451 15.0755 3.40135 15.0476 3.36311 15.0284C3.32486 15.0093 3.28261 14.9995 3.23985 14.9999C3.19659 15.0016 3.15449 15.0144 3.11768 15.0372C3.08087 15.06 3.0506 15.0919 3.02985 15.1299L0.629852 19.2699C0.539449 19.4316 0.495711 19.6152 0.503512 19.8002C0.511314 19.9852 0.570348 20.1645 0.674036 20.3179C0.777723 20.4714 0.92199 20.593 1.09075 20.6693C1.25952 20.7456 1.44615 20.7735 1.62985 20.7499L4.01985 20.3499L4.84985 22.6399C4.91548 22.8174 5.03014 22.9727 5.1805 23.0876C5.33086 23.2026 5.51074 23.2725 5.69925 23.2892C5.88776 23.306 6.07715 23.2689 6.24542 23.1823C6.4137 23.0957 6.55394 22.9631 6.64985 22.7999L8.64985 19.4599C8.66736 19.4277 8.67653 19.3916 8.67653 19.3549C8.67653 19.3183 8.66736 19.2822 8.64985 19.2499C8.63738 19.2155 8.61747 19.1842 8.59155 19.1582C8.56563 19.1323 8.53432 19.1124 8.49985 19.0999C6.43442 18.3467 4.66696 16.9474 3.45985 15.1099ZM23.3699 19.2699L20.9998 15.0999C20.9786 15.0631 20.948 15.0326 20.9111 15.0116C20.8742 14.9905 20.8323 14.9796 20.7899 14.9799C20.7483 14.9785 20.7071 14.9879 20.6703 15.0072C20.6335 15.0265 20.6023 15.055 20.5798 15.0899C19.3623 16.9323 17.585 18.3346 15.5099 19.0899C15.4421 19.1183 15.3882 19.1722 15.3599 19.2399C15.3423 19.2722 15.3332 19.3083 15.3332 19.3449C15.3332 19.3816 15.3423 19.4177 15.3599 19.4499L17.3598 22.8099C17.4566 22.9728 17.5976 23.1049 17.7664 23.1907C17.9353 23.2766 18.1251 23.3127 18.3137 23.2949C18.5023 23.2771 18.6819 23.2061 18.8317 23.0901C18.9815 22.9742 19.0953 22.818 19.1598 22.6399L19.9898 20.3499L22.3798 20.7499C22.5683 20.7846 22.7627 20.7644 22.94 20.6917C23.1173 20.619 23.27 20.4969 23.3798 20.3399C23.4797 20.179 23.5318 19.9929 23.53 19.8035C23.5282 19.6141 23.4727 19.429 23.3699 19.2699ZM20.7298 9.45994C20.7298 7.7285 20.2162 6.03599 19.2538 4.59663C18.2915 3.15727 16.9237 2.03578 15.3237 1.3741C13.7237 0.712425 11.9633 0.540318 10.2654 0.879563C8.56756 1.21881 7.0085 2.05415 5.78559 3.27986C4.56268 4.50557 3.73091 6.06655 3.39555 7.76519C3.06019 9.46384 3.23633 11.2238 3.90166 12.8223C4.56699 14.4208 5.69162 15.786 7.13317 16.745C8.57473 17.7041 10.2684 18.2139 11.9999 18.2099C14.317 18.2046 16.5375 17.2804 18.1741 15.6401C19.8107 13.9997 20.7299 11.7771 20.7298 9.45994ZM15.4799 12.8799C15.5307 12.9952 15.5433 13.1236 15.5159 13.2465C15.4885 13.3694 15.4224 13.4804 15.3274 13.5631C15.2325 13.6457 15.1135 13.6959 14.988 13.7061C14.8625 13.7163 14.737 13.6861 14.6299 13.6199L12.1099 12.1999C12.071 12.1806 12.0282 12.1705 11.9849 12.1705C11.9415 12.1705 11.8987 12.1806 11.8599 12.1999L9.33985 13.6199C9.23273 13.6861 9.10723 13.7163 8.98171 13.7061C8.85619 13.6959 8.73724 13.6457 8.64226 13.5631C8.54728 13.4804 8.48125 13.3694 8.45382 13.2465C8.4264 13.1236 8.43903 12.9952 8.48985 12.8799L9.48985 10.5199C9.50974 10.4727 9.51464 10.4206 9.50391 10.3705C9.49318 10.3204 9.46733 10.2748 9.42985 10.2399L7.60985 8.41994C7.51468 8.34585 7.44597 8.24302 7.41394 8.12674C7.38192 8.01046 7.38829 7.88694 7.43212 7.77458C7.47594 7.66221 7.55487 7.56699 7.65716 7.50309C7.75946 7.4392 7.87965 7.41003 7.99985 7.41994H10.1199C10.1676 7.42099 10.2146 7.40836 10.2553 7.38355C10.2961 7.35874 10.3289 7.32279 10.3499 7.27994L11.4499 4.99994C11.5024 4.90399 11.5798 4.82394 11.6739 4.76817C11.7681 4.71241 11.8754 4.68299 11.9849 4.68299C12.0943 4.68299 12.2016 4.71241 12.2958 4.76817C12.3899 4.82394 12.4673 4.90399 12.5199 4.99994L13.6199 7.26994C13.6391 7.312 13.6701 7.34759 13.7092 7.37243C13.7482 7.39727 13.7936 7.41029 13.8399 7.40994H15.9999C16.1209 7.39747 16.2428 7.4248 16.347 7.48779C16.4511 7.55077 16.532 7.64599 16.5772 7.75902C16.6224 7.87204 16.6295 7.99672 16.5975 8.11418C16.5655 8.23163 16.4961 8.33546 16.3999 8.40994L14.4999 10.2399C14.4652 10.2767 14.442 10.3228 14.4332 10.3725C14.4243 10.4222 14.4301 10.4735 14.4499 10.5199L15.4799 12.8799Z" />
    </g>
  </svg>