<svg xmlns="http://www.w3.org/2000/svg" width="64" height="64" viewBox="0 0 64 64" fill="#186f65"
  class="flex-shrink-0 2xl:mb-8 1xl:mb-7 xl:mb-6 mb-[18px] h-auto 1xl:w-[64px] xl:w-[56px] lg:w-12 md:w-11 sm:w-10 w-12 fill-primary-900">
  <path
    d="M12.1249 63.9165C11.9982 63.8565 11.8766 63.7882 11.7466 63.7382C10.3949 63.2182 9.61991 62.1298 9.61325 60.6748C9.60158 58.2015 9.59658 55.7265 9.61325 53.2532C9.64491 48.3449 12.9233 44.1732 17.6916 42.9665C20.4733 42.2632 23.2616 41.5848 26.0416 40.8732C26.2699 40.8148 26.5566 40.6149 26.6316 40.4132C26.7599 40.0665 26.5916 39.7965 26.2316 39.5598C25.0532 38.7832 23.8782 37.9932 22.7782 37.1115C20.6849 35.4365 19.6266 33.1815 19.3882 30.5432C19.3366 29.9749 19.1449 29.7032 18.5949 29.4782C16.4016 28.5815 15.4349 26.1115 16.3566 23.9315C16.4199 23.7799 16.4832 23.6282 16.5632 23.4382C15.2649 23.1082 14.2399 22.4049 14.0166 21.0749C13.8299 19.9649 13.8199 18.7898 13.9516 17.6698C14.0749 16.6282 14.9049 16.1182 15.9066 15.9915C16.0132 14.8499 16.0149 13.6965 16.2433 12.5915C17.2766 7.60485 20.2816 4.33152 25.1032 2.71652C25.4666 2.59485 25.6866 2.45652 25.8383 2.07819C26.3616 0.771519 27.3716 0.0731846 28.7782 0.0515179C30.9232 0.0181846 33.0682 0.0315181 35.2149 0.0465181C36.5832 0.0565181 37.6682 0.844853 38.2116 2.11819C38.3066 2.34152 38.5499 2.58652 38.7766 2.65652C44.3916 4.39319 47.9866 9.23985 47.9999 15.1215C47.9999 15.3899 47.9999 15.6599 47.9999 15.7715C48.6082 16.1465 49.1999 16.3865 49.6066 16.8048C49.9066 17.1132 50.0432 17.6448 50.1066 18.0965C50.1899 18.6882 50.1299 19.2999 50.1282 19.9015C50.1266 21.8082 49.3382 22.8649 47.4566 23.4315C47.5182 23.5982 47.5716 23.7649 47.6399 23.9265C48.5982 26.1982 47.5182 28.7132 45.1816 29.5815C44.8382 29.7098 44.6699 29.8732 44.6499 30.2299C44.4516 33.7749 42.6066 36.3365 39.7766 38.2982C39.1116 38.7599 38.4316 39.2099 37.7182 39.5932C37.2982 39.8182 37.2799 40.1465 37.3682 40.4748C37.4116 40.6382 37.6916 40.7982 37.8932 40.8498C40.6732 41.5632 43.4582 42.2549 46.2416 42.9549C51.0882 44.1732 54.3549 48.3215 54.3849 53.3149C54.3999 55.7049 54.3916 58.0965 54.3866 60.4865C54.3832 62.2098 53.6599 63.2115 52.0116 63.8065C51.9582 63.8249 51.9182 63.8782 51.8716 63.9148C38.6249 63.9165 25.3749 63.9165 12.1249 63.9165ZM32.0632 23.4732C28.1882 23.4732 24.3132 23.4699 20.4399 23.4749C19.1099 23.4765 18.1832 24.3049 18.1349 25.5065C18.0866 26.6749 18.9399 27.5865 20.2082 27.7249C20.9532 27.8065 21.2682 28.1182 21.3532 28.8715C21.4099 29.3665 21.4466 29.8648 21.5116 30.3582C21.7466 32.1715 22.3116 33.8182 23.7199 35.1082C25.7449 36.9632 28.0382 38.3432 30.6499 39.1949C31.5499 39.4882 32.4499 39.4899 33.3499 39.1949C36.1066 38.2949 38.5366 36.8549 40.5766 34.7865C41.4282 33.9249 42.0299 32.9165 42.2282 31.7032C42.3749 30.8015 42.5233 29.8999 42.6299 28.9949C42.7316 28.1182 42.9966 27.8549 43.8516 27.7082C44.2666 27.6365 44.7049 27.4799 45.0466 27.2399C45.7966 26.7132 46.0432 25.7615 45.7482 24.8999C45.4499 24.0282 44.6849 23.4799 43.6882 23.4782C39.8116 23.4699 35.9382 23.4748 32.0632 23.4732ZM18.1632 15.9649C27.4132 15.9649 36.6232 15.9649 45.8299 15.9649C46.3149 9.80652 41.9282 5.70985 38.3899 4.87485C38.3899 5.10985 38.3899 5.33152 38.3899 5.55319C38.3883 7.25652 38.3982 8.96152 38.3816 10.6648C38.3749 11.3015 37.9099 11.7532 37.3316 11.7515C36.7832 11.7515 36.3299 11.3198 36.2682 10.7265C36.2482 10.5415 36.2599 10.3532 36.2599 10.1665C36.2599 7.94318 36.2616 5.71985 36.2582 3.49485C36.2566 2.54318 35.8866 2.16985 34.9399 2.16652C32.9832 2.16152 31.0249 2.16152 29.0682 2.16652C28.1149 2.16818 27.7432 2.53819 27.7416 3.48485C27.7366 5.72985 27.7399 7.97318 27.7399 10.2182C27.7399 10.4265 27.7516 10.6382 27.7166 10.8399C27.6216 11.3899 27.1366 11.7782 26.6149 11.7482C26.0782 11.7182 25.6449 11.3015 25.6232 10.7332C25.5966 10.0282 25.6116 9.31985 25.6116 8.61318C25.6099 7.37152 25.6116 6.12985 25.6116 4.88152C21.3816 5.51652 17.7882 10.8715 18.1632 15.9649ZM42.8882 44.3632C42.5466 46.7548 42.2066 49.1182 41.8732 51.4799C41.6349 53.1565 40.3732 54.3132 38.6866 54.3182C34.2299 54.3332 29.7732 54.3315 25.3149 54.3182C23.6766 54.3132 22.3999 53.2065 22.1449 51.6065C21.9949 50.6632 21.8799 49.7148 21.7432 48.7682C21.5316 47.2932 21.3149 45.8199 21.0966 44.3149C20.6149 44.4332 20.1966 44.5782 19.7682 44.6315C19.2732 44.6932 19.1982 44.9565 19.1999 45.3915C19.2116 50.6498 19.2082 55.9099 19.2099 61.1682C19.2099 61.3648 19.2366 61.5615 19.2499 61.7515C27.7899 61.7515 36.2566 61.7515 44.7916 61.7515C44.7916 61.4748 44.7916 61.2298 44.7916 60.9848C44.7916 56.1632 44.7916 51.3398 44.7916 46.5182C44.7916 44.7198 44.7916 44.7198 43.0232 44.3482C43.0032 44.3498 42.9816 44.3565 42.8882 44.3632ZM23.2399 43.7799C23.2399 43.9282 23.2299 44.0115 23.2416 44.0915C23.5799 46.4965 23.9066 48.9032 24.2682 51.3065C24.3566 51.8915 24.7682 52.1982 25.3749 52.1982C29.7882 52.1998 34.2032 52.2032 38.6166 52.1948C39.2799 52.1932 39.6432 51.8532 39.7532 51.1915C39.8216 50.7815 39.8749 50.3699 39.9332 49.9599C40.2016 48.0899 40.4766 46.2198 40.7299 44.3482C40.7566 44.1549 40.6899 43.7932 40.5949 43.7665C39.4649 43.4482 38.3199 43.1782 37.1816 42.8965C36.3132 45.3132 34.7249 46.7715 32.1866 46.8465C29.4466 46.9282 27.7349 45.4282 26.8099 42.8948C25.6232 43.1865 24.4582 43.4765 23.2399 43.7799ZM47.9982 18.1798C37.2932 18.1798 26.6649 18.1798 15.9999 18.1798C15.9999 18.7198 15.9999 19.2165 15.9999 19.7132C15.9999 21.0715 16.2766 21.3432 17.6566 21.3432C27.2166 21.3432 36.7766 21.3432 46.3366 21.3432C46.5449 21.3432 46.7549 21.3548 46.9616 21.3315C47.6032 21.2598 47.9766 20.8682 47.9949 20.2182C48.0132 19.5548 47.9982 18.8915 47.9982 18.1798ZM17.0299 45.4715C16.9132 45.5048 16.8366 45.5182 16.7682 45.5498C14.0949 46.7998 12.2516 48.8532 11.9399 51.7632C11.6182 54.7632 11.7783 57.8148 11.7649 60.8448C11.7633 61.4132 12.1966 61.7632 12.7566 61.7765C14.1682 61.8082 15.5799 61.7865 17.0316 61.7865C17.0299 56.3332 17.0299 50.9265 17.0299 45.4715ZM46.9816 45.4198C46.9816 50.9448 46.9816 56.3515 46.9816 61.7532C47.0949 61.7699 47.1566 61.7865 47.2166 61.7865C48.4649 61.7882 49.7132 61.7948 50.9616 61.7882C51.8716 61.7832 52.2549 61.4049 52.2566 60.4998C52.2616 58.0699 52.2632 55.6399 52.2499 53.2099C52.2466 52.7349 52.2082 52.2515 52.1166 51.7865C51.5316 48.8032 49.8132 46.7182 46.9816 45.4198ZM28.8182 40.8115C28.6999 42.3315 29.0866 43.5282 30.3516 44.2815C31.5082 44.9698 32.7066 44.9332 33.8199 44.1698C34.9582 43.3898 35.3049 42.2498 35.1699 40.8215C33.0516 41.7498 30.9716 41.7415 28.8182 40.8115Z"
    />
  </svg>