<svg xmlns="http://www.w3.org/2000/svg" width="64" height="64" viewBox="0 0 64 64" fill="#186f65"
  class="flex-shrink-0 2xl:mb-8 1xl:mb-7 xl:mb-6 mb-[18px] h-auto 1xl:w-[64px] xl:w-[56px] lg:w-12 md:w-11 sm:w-10 w-12 fill-primary-900">
  <path
    d="M0.00666266 28.1336C0.331646 27.6336 0.789955 27.4886 1.38159 27.4902C6.46133 27.5086 11.5411 27.5002 16.6191 27.5002C17.8641 27.5002 18.2457 28.0536 17.7957 29.1952C17.6057 29.6768 17.4158 30.1584 17.2074 30.6867C18.449 31.55 19.7956 32.1583 21.2889 32.2283C22.4172 32.2817 23.5854 32.225 24.6837 31.98C26.8553 31.4967 28.9768 31.5167 31.0867 32.19C31.8867 32.4467 32.5933 32.4367 33.4049 32.095C35.6015 31.1701 37.888 31.1234 40.1962 31.695C42.4978 32.265 44.686 31.9533 46.8492 30.8117C46.6209 30.2401 46.3976 29.6901 46.1826 29.1385C45.7759 28.0986 46.1643 27.5036 47.2625 27.5019C52.4256 27.4986 57.587 27.5086 62.7501 27.4902C63.3167 27.4886 63.69 27.7152 64 28.1336C64 35.0365 64 41.9395 64 48.8425C63.6184 49.3558 63.0984 49.4741 62.4767 49.4674C60.3735 49.4408 58.267 49.3858 56.1671 49.4841C54.8671 49.5441 53.9739 49.2658 53.6739 47.8809C53.6422 47.7325 53.3589 47.5175 53.2106 47.5309C51.969 47.6459 50.729 47.8025 49.4924 47.9659C49.3658 47.9825 49.1691 48.1225 49.1508 48.2308C48.8775 49.8258 47.9058 50.7524 46.3893 51.1374C46.2526 53.7456 45.5226 54.5638 42.8028 55.1971C42.4961 57.4287 41.1745 58.4953 38.943 58.4853C38.7996 60.0486 38.0647 61.1452 36.6198 61.7101C35.1348 62.2901 33.8716 61.6968 32.685 60.8568C31.18 63.8217 27.4902 63.5284 26.4186 60.6352C24.617 60.7985 23.3821 60.0269 22.7255 58.352C20.6089 58.502 19.1623 57.4337 18.8357 55.1438C17.6524 55.0371 16.7075 54.5055 16.1308 53.4272C15.5442 52.3306 15.6758 51.234 16.2508 50.1807C14.5942 48.7158 12.8543 47.4942 10.8644 46.5143C10.5795 47.2126 10.3178 47.8625 10.0528 48.5092C9.72783 49.3041 9.50784 49.4541 8.64622 49.4558C6.27134 49.4574 3.89812 49.4424 1.52325 49.4658C0.903279 49.4724 0.381647 49.3591 0 48.8408C0.00666632 41.9395 0.00666266 35.0365 0.00666266 28.1336ZM31.2367 52.8939C32.3517 52.8156 32.89 52.9606 33.8499 53.5089C35.4382 54.4155 37.0281 55.3221 38.6397 56.1871C38.963 56.3604 39.3996 56.4471 39.7613 56.3971C40.2912 56.3254 40.6362 55.9254 40.7379 55.3871C40.8379 54.8505 40.6679 54.3838 40.1979 54.0889C39.0346 53.3606 37.858 52.6539 36.6864 51.9406C35.8231 51.4157 35.5831 50.8924 35.9448 50.3124C36.3081 49.7308 36.8547 49.7058 37.743 50.2441C39.1646 51.1057 40.5846 51.974 42.0045 52.8373C42.8094 53.3272 43.6944 53.1639 44.1377 52.4439C44.6094 51.6773 44.3593 50.849 43.4977 50.3441C43.2644 50.2074 43.0228 50.0874 42.7811 49.9641C41.7245 49.4291 40.6429 48.9358 39.6229 48.3358C39.328 48.1625 39.0663 47.6925 39.058 47.3525C39.0513 47.0776 39.3979 46.6859 39.6846 46.5459C39.9263 46.4293 40.3462 46.5226 40.6229 46.6576C42.1345 47.3959 43.6277 48.1725 45.1243 48.9425C45.6276 49.2008 46.1309 49.2325 46.6009 48.9041C47.0742 48.5742 47.3009 48.0575 47.0976 47.5409C46.9459 47.1542 46.6092 46.7642 46.2509 46.5443C43.4827 44.8527 40.6595 43.2494 37.9164 41.5195C36.5214 40.6412 35.2398 40.5046 33.6882 41.1395C30.0918 42.6095 26.0786 41.5878 23.5654 38.723C22.9205 37.988 23.0238 37.3614 23.8788 36.9048C24.4104 36.6214 24.952 36.3548 25.487 36.0781C26.8503 35.3748 28.2119 34.6699 29.6984 33.9016C29.3868 33.8283 29.2151 33.7783 29.0385 33.7466C27.7452 33.5149 26.4703 33.6083 25.2037 33.9382C23.0088 34.5099 20.8306 34.4499 18.6957 33.6716C17.9241 33.3899 17.1891 33.005 16.4091 32.655C14.8109 36.6431 13.216 40.6246 11.6644 44.4944C13.621 45.806 15.5092 47.0692 17.4091 48.3408C18.0641 47.4059 19.0057 46.8776 20.2289 46.9192C21.4522 46.9609 22.3205 47.6125 22.9488 48.5858C25.012 47.8859 26.3153 48.4175 27.3969 50.3407C27.4619 50.4557 27.6402 50.584 27.7586 50.5774C29.4901 50.4924 30.6067 51.3107 31.2367 52.8939ZM25.862 38.1564C26.017 38.2864 26.122 38.388 26.2403 38.468C28.4618 39.9896 30.8267 40.2163 33.2949 39.1746C34.9815 38.463 36.6164 38.458 38.2013 39.3963C41.2978 41.2279 44.3827 43.0794 47.4709 44.926C47.6309 45.021 47.8358 45.1027 47.9242 45.2493C48.4625 46.1293 49.2408 46.0076 50.0791 45.851C50.944 45.6893 51.8256 45.6193 52.7456 45.5026C51.0173 41.1895 49.3191 36.9564 47.6008 32.6716C44.7427 34.1749 41.8312 34.1782 38.808 33.4733C36.9581 33.0416 35.1148 33.3833 33.4083 34.2466C31.0717 35.4298 28.7502 36.6448 26.4236 37.8464C26.247 37.9397 26.072 38.0414 25.862 38.1564ZM6.04468 29.5285C6.04468 35.5098 6.04468 41.4595 6.04468 47.4609C6.64131 47.4609 7.20129 47.4242 7.75626 47.4725C8.22124 47.5125 8.39456 47.3059 8.55289 46.9092C10.6028 41.7628 12.671 36.6231 14.7326 31.4817C14.9892 30.8417 15.2342 30.1951 15.4942 29.5285C12.2977 29.5285 9.18285 29.5285 6.04468 29.5285ZM57.9753 29.5168C54.8038 29.5168 51.6873 29.5168 48.5025 29.5168C48.9308 30.5934 49.3391 31.63 49.7541 32.665C51.6606 37.4214 53.5655 42.1778 55.4838 46.9309C55.5638 47.1309 55.7521 47.4225 55.9088 47.4342C56.5837 47.4909 57.267 47.4575 57.9736 47.4575C57.9753 41.4529 57.9753 35.5182 57.9753 29.5168ZM2.04156 29.5285C2.04156 35.5082 2.04156 41.4545 2.04156 47.4159C2.70819 47.4159 3.33815 47.4159 3.95979 47.4159C3.95979 41.4229 3.95979 35.4748 3.95979 29.5285C3.29815 29.5285 2.68153 29.5285 2.04156 29.5285ZM60.0535 29.5101C60.0535 35.4798 60.0535 41.4429 60.0535 47.4142C60.7085 47.4142 61.3385 47.4142 61.9568 47.4142C61.9568 41.4195 61.9568 35.4715 61.9568 29.5101C61.3085 29.5101 60.7068 29.5101 60.0535 29.5101ZM33.0349 56.2238C33.0366 55.4771 32.7183 55.1021 32.17 54.9288C31.6267 54.7572 31.1817 54.9405 30.8834 55.4188C30.0918 56.6837 29.2968 57.947 28.5385 59.2319C28.4052 59.4569 28.3669 59.7986 28.4185 60.0586C28.5152 60.5435 28.8652 60.8518 29.3635 60.9318C29.9134 61.0202 30.3368 60.7919 30.6284 60.3252C31.3617 59.1453 32.0983 57.967 32.8183 56.7787C32.9416 56.5737 32.9966 56.3254 33.0349 56.2238ZM25.6203 51.5357C25.547 50.9174 25.3053 50.4991 24.762 50.3424C24.2087 50.1824 23.7138 50.3241 23.3971 50.8224C22.6205 52.049 21.8539 53.2806 21.1106 54.5272C20.7356 55.1555 20.9306 55.8638 21.5172 56.1971C22.0972 56.5287 22.7388 56.3588 23.1255 55.7438C23.8871 54.5322 24.6371 53.3122 25.382 52.0906C25.497 51.9023 25.5587 51.6807 25.6203 51.5357ZM26.0336 58.6636C26.182 58.567 26.5619 58.447 26.7319 58.1887C27.5736 56.9087 28.3735 55.5988 29.1618 54.2839C29.4851 53.7456 29.2918 53.1022 28.7702 52.7656C28.2219 52.4123 27.5452 52.5289 27.1853 53.0906C26.372 54.3655 25.5687 55.6488 24.797 56.9487C24.3487 57.7037 24.957 58.667 26.0336 58.6636ZM21.2922 50.1874C21.2639 49.5308 20.9972 49.1491 20.5006 48.9858C19.959 48.8058 19.4556 48.9358 19.1257 49.4241C18.699 50.0591 18.289 50.7074 17.9174 51.3757C17.5857 51.9723 17.8141 52.6623 18.3874 52.9789C18.9457 53.2872 19.5773 53.1273 19.9506 52.5539C20.3456 51.9473 20.7239 51.3307 21.0922 50.7074C21.2022 50.5174 21.2522 50.2924 21.2922 50.1874ZM33.7532 59.1903C34.1665 59.4153 34.5649 59.6919 35.0032 59.8569C35.6648 60.1069 36.4114 59.7652 36.7464 59.1319C37.0797 58.5036 36.9347 57.6853 36.3714 57.277C35.9715 56.987 35.5281 56.7571 35.1665 56.5404C34.6882 57.4354 34.2349 58.2853 33.7532 59.1903Z"
    />
    <path
      d="M45.0045 14.0459C44.9929 21.1839 39.1265 27.0169 31.9752 26.9986C24.8206 26.9802 18.9925 21.1355 19.0059 13.9876C19.0192 6.83628 24.8572 1.04157 32.0335 1.05324C39.2032 1.06491 45.0145 6.88794 45.0045 14.0459ZM32.0352 3.04981C25.9539 3.03814 21.0108 7.94622 21.0058 14.0026C21.0008 20.0556 25.9472 25.002 32.0052 25.002C38.0366 25.002 42.988 20.0789 43.0046 14.0642C43.0213 7.99455 38.1082 3.0598 32.0352 3.04981Z"
      />
      <path
        d="M31.0069 8.01615C31.0069 7.38785 30.9953 6.76455 31.0103 6.14291C31.0253 5.49795 31.4136 5.0763 31.9769 5.05964C32.5619 5.04131 32.9802 5.47795 33.0035 6.14791C33.0152 6.45956 33.0068 6.77122 33.0068 7.08287C33.0068 7.37118 33.0068 7.66117 33.0068 8.03948C33.6351 8.03948 34.2301 8.03448 34.8234 8.04115C35.5617 8.04948 36.0033 8.4278 36 9.03443C35.9967 9.6344 35.545 10.026 34.8117 10.0327C33.7501 10.0444 32.6885 10.0377 31.6269 10.041C30.6953 10.0444 30.027 10.6443 30.0087 11.491C29.9903 12.3326 30.6386 12.9776 31.5586 13.0276C32.1385 13.0592 32.7352 13.0142 33.2951 13.1359C34.8584 13.4759 35.9483 14.8258 36 16.3791C36.0517 17.9573 35.0851 19.3739 33.5551 19.8205C33.0918 19.9555 32.9685 20.1489 32.9968 20.5838C33.0285 21.0588 33.0202 21.5404 32.9968 22.0171C32.9668 22.6104 32.5519 23.012 32.0085 23.0154C31.4652 23.0187 31.0369 22.6171 31.0136 22.0271C30.9886 21.3871 31.0086 20.7455 31.0086 20.0172C30.3953 20.0172 29.822 20.0222 29.2487 20.0155C28.4721 20.0055 28.0071 19.6222 28.0104 19.0039C28.0154 18.3789 28.4587 18.0256 29.262 18.0223C30.282 18.019 31.3019 18.0306 32.3219 18.019C33.3335 18.0073 34.0201 17.3707 34.0018 16.4874C33.9851 15.6191 33.3218 15.0458 32.3252 15.0275C31.8686 15.0191 31.4036 15.0358 30.9569 14.9608C29.2887 14.6791 28.0904 13.3442 28.0104 11.7243C27.9288 10.0727 28.9487 8.65612 30.5686 8.16781C30.7069 8.12281 30.8419 8.07115 31.0069 8.01615Z"
        />
      </svg>