<svg xmlns="http://www.w3.org/2000/svg" width="112" height="112" viewBox="0 0 112 112" fill="none" color="#3A3A3A" aria-label="Konsulting i Planowanie"><title>Konsulting i Planowanie</title><style> .icon { fill: none; stroke: currentColor; stroke-width: 5.2; stroke-linecap: round; stroke-linejoin: round; } .thin { fill: none; stroke: currentColor; stroke-width: 4.3; stroke-linecap: round; stroke-linejoin: round; }</style><g class="icon"><path d="M27 25H73C76 25 79 28 79 31V91C79 94 76 97 73 97H27C24 97 21 94 21 91V31C21 28 24 25 27 25Z"/><path d="M40 25C41 17 47 13 56 13C65 13 71 17 72 25V31H40V25Z"/><path d="M35 48L41 54L52 42"/><path d="M59 50H69"/><path d="M35 68L41 74L52 62"/><path d="M59 70H68"/><path d="M66 51H78C89 51 98 59 98 69C98 79 89 87 78 87H72L62 96V85C55 82 51 76 51 69C51 59 55 53 66 51Z"/><path d="M68 68H83" class="thin"/><path d="M68 76H78" class="thin"/></g></svg>