<svg xmlns="http://www.w3.org/2000/svg" width="112" height="112" viewBox="0 0 112 112" fill="none" color="#3A3A3A" aria-label="Parki Tematyczne"><title>Parki Tematyczne</title><style> .icon { fill: none; stroke: currentColor; stroke-width: 5.2; stroke-linecap: round; stroke-linejoin: round; } .thin { fill: none; stroke: currentColor; stroke-width: 4.3; stroke-linecap: round; stroke-linejoin: round; }</style><g class="icon"><path d="M18 86V53L31 43L43 53L56 36L69 53L81 43L94 53V86"/><path d="M18 86H43V70C43 63 49 57 56 57C63 57 69 63 69 70V86H94"/><path d="M56 36V20"/><path d="M56 20H76L70 28L76 36H56"/><path d="M25 74C39 61 51 58 63 64C74 69 78 82 91 73" class="thin"/><circle cx="31" cy="73" r="3"/><circle cx="91" cy="73" r="3"/></g></svg>