<svg xmlns="http://www.w3.org/2000/svg" width="112" height="112" viewBox="0 0 112 112" fill="none" color="#3A3A3A" aria-label="Projekty Koncepcyjne"><title>Projekty Koncepcyjne</title><style> .icon { fill: none; stroke: currentColor; stroke-width: 5.2; stroke-linecap: round; stroke-linejoin: round; } .thin { fill: none; stroke: currentColor; stroke-width: 4.3; stroke-linecap: round; stroke-linejoin: round; }</style><g class="icon"><path d="M24 19H68L88 39V93H24V19Z"/><path d="M68 19V39H88"/><path d="M56 36C47 36 40 43 40 51C40 57 44 61 48 65V70H64V65C68 61 72 57 72 51C72 43 65 36 56 36Z"/><path d="M49 79H63"/><path d="M51 70H61" class="thin"/><path d="M73 75L91 57L99 65L81 83L69 87L73 75Z"/><path d="M87 61L95 69"/></g></svg>