<svg xmlns="http://www.w3.org/2000/svg" width="112" height="112" viewBox="0 0 112 112" fill="none" color="#3A3A3A" aria-label="SPA i Hotele"><title>SPA i Hotele</title><style> .icon { fill: none; stroke: currentColor; stroke-width: 5.2; stroke-linecap: round; stroke-linejoin: round; } .thin { fill: none; stroke: currentColor; stroke-width: 4.3; stroke-linecap: round; stroke-linejoin: round; }</style><g class="icon"><path d="M28 88V38H84V88"/><path d="M22 38H90"/><path d="M39 38V26H73V38"/><path d="M44 88V72H68V88"/><path d="M41 51H47"/><path d="M53 51H59"/><path d="M65 51H71"/><path d="M41 63H47"/><path d="M65 63H71"/><path d="M28 97C35 97 35 93 42 93C49 93 49 97 56 97C63 97 63 93 70 93C77 93 77 97 84 97"/><path d="M43 24C36 16 49 14 43 7" class="thin"/><path d="M56 23C49 15 62 13 56 6" class="thin"/><path d="M69 24C62 16 75 14 69 7" class="thin"/></g></svg>