<svg xmlns="http://www.w3.org/2000/svg" width="112" height="112" viewBox="0 0 112 112" fill="none" color="#3A3A3A" aria-label="Wykonawstwo i Inżynieria"><title>Wykonawstwo i Inżynieria</title><style> .icon { fill: none; stroke: currentColor; stroke-width: 5.2; stroke-linecap: round; stroke-linejoin: round; } .thin { fill: none; stroke: currentColor; stroke-width: 4.3; stroke-linecap: round; stroke-linejoin: round; }</style><g class="icon"><path d="M19 72H93"/><path d="M27 72C27 48 40 31 56 31C72 31 85 48 85 72"/><path d="M43 33V56"/><path d="M69 33V56"/><path d="M36 72V80C36 89 45 96 56 96C67 96 76 89 76 80V72"/><circle cx="84" cy="30" r="9" class="thin"/><circle cx="84" cy="30" r="3" class="thin"/><path d="M84 15V20" class="thin"/><path d="M84 40V45" class="thin"/><path d="M69 30H74" class="thin"/><path d="M94 30H99" class="thin"/><path d="M73 19L77 23" class="thin"/><path d="M91 37L95 41" class="thin"/><path d="M95 19L91 23" class="thin"/><path d="M77 37L73 41" class="thin"/></g></svg>