<svg xmlns="http://www.w3.org/2000/svg" width="112" height="112" viewBox="0 0 112 112" fill="none" color="#3A3A3A" aria-label="Ogrody Zoologiczne"><title>Ogrody Zoologiczne</title><style> .icon { fill: none; stroke: currentColor; stroke-width: 5.2; stroke-linecap: round; stroke-linejoin: round; } .thin { fill: none; stroke: currentColor; stroke-width: 4.3; stroke-linecap: round; stroke-linejoin: round; }</style><g class="icon"><path d="M18 90C27 72 40 62 56 62C72 62 85 72 94 90"/><path d="M24 90H88"/><ellipse cx="36" cy="40" rx="7" ry="10" transform="rotate(-20 36 40)"/><ellipse cx="49" cy="31" rx="7" ry="10" transform="rotate(-8 49 31)"/><ellipse cx="63" cy="31" rx="7" ry="10" transform="rotate(8 63 31)"/><ellipse cx="76" cy="40" rx="7" ry="10" transform="rotate(20 76 40)"/><path d="M40 75C40 64 47 55 56 55C65 55 72 64 72 75C72 84 65 88 56 88C47 88 40 84 40 75Z"/><path d="M79 70C86 64 90 55 90 45" class="thin"/><path d="M86 51C80 50 76 47 73 42" class="thin"/></g></svg>